<mxfile host="app.diagrams.net" modified="2021-11-01T21:21:37.198Z" agent="5.0 (Macintosh; Intel Mac OS X 10_15_7) AppleWebKit/537.36 (KHTML, like Gecko) Chrome/94.0.4606.81 Safari/537.36" etag="0EBDVCEkfGVL07EKlV7K" version="15.4.3" type="github">
  <diagram id="2uqAs0C8XVqvxUqyv8aO" name="Page-1">
    <mxGraphModel dx="781" dy="1522" grid="1" gridSize="5" guides="1" tooltips="1" connect="1" arrows="1" fold="1" page="1" pageScale="1" pageWidth="850" pageHeight="1100" math="0" shadow="0">
      <root>
        <mxCell id="0" />
        <mxCell id="1" parent="0" />
        <mxCell id="ooCom0t9Wb2H1rmMklXi-2" value="" style="shape=image;imageAspect=0;aspect=fixed;verticalLabelPosition=bottom;verticalAlign=top;image=data:image/png,iVBORw0KGgoAAAANSUhEUgAAAMgAAADICAYAAACtWK6eAAAABHNCSVQICAgIfAhkiAAAAAlwSFlzAAALEwAACxMBAJqcGAAACaZJREFUeJzt3XusHFUdwPFveWgptSp9xGJomxgCWiMFKrSFpqRCiImKFKJiGmtUUhJfiWKMhhAbkPgHCUg04iupgIpSChpJSBRotZhWWyktKA2ItFosFozWUkulrX+cbrs7d+/MPu7OmTP7/SQnN7Nnd+d3d/e3c86ZM2dBkiRJkiRJkiRJkiRJkiRJkiRJkiRJkiRJkiRJkiRJkiRJkiRJkiRJkiRJkiRJkiRJkiRJkiRJkiSpwLjYAbQxAVgMnAO8CXhN3HA0xg4Au4BNwCPAvrjhpGMK8HXgP8Bhy1CUPcAtwCko1yXAbuK/YZY45QVCq0FtXEY47MZ+kyxxywHgvVRM7D7IW4GNhH5HsxeA1cAfgf1lB6WBGg/MBq4ApmbqXgbOBbaVHVRVrWXkN8lNhBdR9TYBuJmR7/9DMYOqkgsY+eJcGzUixfBFRn4O5kWNqCK+SeuLsjZuOIroN7R+Fm6LG84xJ0Tc98LM9q0D2Mcs4Lqm7e3ADUNUn4pbgAubtrOfjaG0l9ZvjckD2MfczD42Dll9KqbQ+n/siRvOMTGPICdntl8quP8bgYuBicDvgScGEdSQGE94LacDTwHrCB/MWLLv/cQoUbQRM0G6cRXwHVpfuB8BHwNeiRJRus4H7gXe3HTbeuBywhSQGLLJGfv0w1EpJMh5wJ3A8ZnbP0z45vlMzmO3A1c3bb84ZPVZU4EHGNmcnUc477Sg4PEqUXZobzQ/bHPfRtnPyKaaRvd58s9mz48XWsefh1IdFzuADpyZU/dawkiOOnNGn/VDJ4UEeT6n7iCws6xAaqDotXqujCBSErMz1GnH7H3Az0apuwNYlrOPWVT7PMWg67PeAjxJOPJmbQXmAIdyHj9Ile2ox9JNm/PGNvdfC0wqeFzs8xCx69v5EKHv1vy4Z4HTO3jsIFWyD5LCKBaEb8n7gfcThnofJQxVxvq2S9ndwAbC0Pl0wvmkuwgzaZWRSoJA+HZM9Uxx1fyFMGtaBVJKkF7EPg8Ru159SqGTruFQyc9DCsO8UjQmiJSj7n0Qja2pwMyS9jU3sz10AzSVHPdWrmvIn8s1yBKFTSwphwki5bAPon7sBnYM6LnPHdDzdsUEiSdvnH9cpn60+746duH0ZDWhXzIIleiXptDE6rXz9r2Cx31icCG3dTbhTHdj/4dyykHCh79R/jdKmVPqfzCEPIKU4xzgV4SFJ5SQFI4gqTM5EmaCDJbJccxxhAWrl8cOpBt1TpAVhHZ/o9xX8v5HS44VHOuEd1seLyPwAfg08DSwivBeJKPOfZC/HikN/yxx32czenJ8pcQ4qqKx1u5e4J6YgXQrhQSpxLTnLv0Sk6Odiwi/TZiMOjexYsouzGZyBG+PHUC3UjiC9Op6YEnT9mmxAsHkaFhJ+NXi70aOo2N1PoLMAM5qKv6SajzzCX2Pg1RkCkmn6nwEUXWsBz5AuJYkqdUbTRCVafuRkow6J8hKwjdXwzJaf8VIKlTnBFl3pDTMwwRRl1JIkKJpzymeJ1Ei6jyKpcFbTs2uQc9K4QjSq2W0/lqqzSt1rc4JshD4eOwglLYUE8Q+h0pjH0TduJ3ep+oXlayi+lKkeATp1ArgGzn1g1qNQzVS5wTJXg8idS3FBKnkMvkFNo/R8yQ1j6kOUkyQFJ0VOwD1xk66lMMEkXKk2MTqtM+RPZPerTWEX3/tRVkrd2wraT+KoNO5N73O0SlaerSo3N7FvtS/Ss7Fsokl5UixiaXyXAlcF2nf2aHxKAt1p5ggvb5wP6D1AqqsRcDSniKqrynEG6KuxNB4ignS6wu3jtAvGc0JmCDKGNY+yEzC74O8I3YgqrYUjyD9mglsASYRfqzmXYQhXRVbBXy1pH09VtJ+cqWYIP2eY7iEkBwQjqBLMEE69RJjN68sCSkmSL9v0O8IR45G8/LRPp9PNZZigvRrC6FZtYSQHD+NG46qbBgTBEKTak3kGJSAFBMkO1Tb6a/VLiL//+1n3pZqKsUEya5U0mmCLMXzHDGdDLwcO4huDet5EJXnUuBB4ObYgfTCBNEgPUFIjkuBVyLH0pMUmljf7vFxa4BX+9jvr/t4rILZR/6uBL4cMY4kVXL+v1pcQ3/XyDQed2IP+67E58MmlsrwIPD62EH0wgTRID1+5O9i4IaYgfTKBNEgzSHMWvgFafR3R0gy6AHrd7GHbj0H3DhKXd71K51YQfzVJR8+UiZEjiM5leiEtdHvYg/dlo05sfT73P1eptpvJ70flfh8pHQEmUyYqj6RMCN3S9xwknYScDEwHXiKcLXloagRVVQqCbKUcD6k+TD9E+CjwP4YASVsHnAvcGrTbRuAy4G/R4mowlJIkPnAHYxcMO6DwIvApwa8/6LFHro1k95XCrm6oP564LSc+mnAA8ApmdvPB1YDC6hWc3eoddrGvLvNfRvlAPC6MY4r2wfpdDJkp+Zmnr+bPkiRzeT3Qa5t85zNZUHm/vZBYu24C3lL/p8IzAK2lhNK8op+PuEM4Lc59W8jJM3QSCFBdpI/GvN8WYHUwM6C+r8V1C9kyK6bSeFE4fdz6u4jLCSgztxFaJa28yywtsRYkpBCgtwPfK3N7ZsZssP9GHiGMPKXTZJdwBVtbh96VWpijaN9Z+ww8CXC0eIyQqd8A3APvqG9+DHh9buKMNT7J8KR5V9t7vskvV9u0I1phGHmhn8Q3u+htpfWUYopccM5qs6jWFX1blrjfihuOMfEPII8Q+s6uwupx7fGNMKSQg27CSfmNLqLMtt/jhFEOzET5BFaE+Rz1CNBZgDfatrehAmS5w2MXIijMldzxuyk35nZvpDQ19DwOJ4wSjm56ba9wM/jhDNSzAT5A2HaQ7ObgFsJExJVb6cSEmFJ5vbbgD3lh9Ne7FGsTwIXEA6zDZ8FPkJobm0lJEyz7NBudvpDt/VZZxbUF9lN68jPjoL7T2Vww9VXEiYnVskk4J3Ae4DxmbptlLd6fDIWA/9l9PlBWWNdX1QGPYrVTSmSHcVKqewCTu/gfyxVFU4UPky4LLNoGoTq6zHCRMmnYweSVYUEgTBBbjaJrr6nnu0gNKnPI0x1qZzYfZBm/wa+QJiS3ayofd5vffZM8SJa+yGLGNvXaUZmezfhWox2lme25xY890mZ7VVUa67aYWAfITHWE64MjTaVPVVlt32zvCZdR1WliSVVkgki5ahSH6ShjNmjedbQ36LX3dqeU7epz+fe1+fjJUmSJEmSJEmSJEmSJEmSJEmSJEmSJEmSJEmSJEmSJEmSJEmSJEmSJEmSJEmSJEmSJEmSJEmSJEmSVOT/csj+h/9ExvoAAAAASUVORK5CYII=;rotation=-90;" parent="1" vertex="1">
          <mxGeometry x="240" y="175" width="200" height="200" as="geometry" />
        </mxCell>
        <mxCell id="u-Hj_nb6FEhS3LdYL111-2" value="" style="shape=image;imageAspect=0;aspect=fixed;verticalLabelPosition=bottom;verticalAlign=top;image=data:image/png,iVBORw0KGgoAAAANSUhEUgAAAOwAAABQCAYAAAAa25kaAAAAAXNSR0IArs4c6QAAAFBlWElmTU0AKgAAAAgAAgESAAMAAAABAAEAAIdpAAQAAAABAAAAJgAAAAAAA6ABAAMAAAABAAEAAKACAAQAAAABAAAA7KADAAQAAAABAAAAUAAAAAA1W2pvAAABWWlUWHRYTUw6Y29tLmFkb2JlLnhtcAAAAAAAPHg6eG1wbWV0YSB4bWxuczp4PSJhZG9iZTpuczptZXRhLyIgeDp4bXB0az0iWE1QIENvcmUgNi4wLjAiPgogICA8cmRmOlJERiB4bWxuczpyZGY9Imh0dHA6Ly93d3cudzMub3JnLzE5OTkvMDIvMjItcmRmLXN5bnRheC1ucyMiPgogICAgICA8cmRmOkRlc2NyaXB0aW9uIHJkZjphYm91dD0iIgogICAgICAgICAgICB4bWxuczp0aWZmPSJodHRwOi8vbnMuYWRvYmUuY29tL3RpZmYvMS4wLyI+CiAgICAgICAgIDx0aWZmOk9yaWVudGF0aW9uPjE8L3RpZmY6T3JpZW50YXRpb24+CiAgICAgIDwvcmRmOkRlc2NyaXB0aW9uPgogICA8L3JkZjpSREY+CjwveDp4bXBtZXRhPgoZXuEHAABAAElEQVR4Ad2dCdhdVXmo/zFzAglJmCEJiogUVJCqICJKAQcULooDVSpWq7VenFBxAK1TFUdqnQpYBbV6HbAWHFFQUFtFnFDRilTGBJKQOfmn+77r399mnX3m859Yn67n+c7ee03fvOa9z+BA4zBM9ESRNMR1d2APYFYRly677rrr3IULFy7yYXBwcHLNmjXrtm7dOu7jPvvss4S4EdM2bty4Yf369Vu9n0mYO3fuyLJlyxZPTU1JU029y5cvXzR79uy5xm/fvn3r6tWrN3g/w9CUj5x36Bm/9dZb14Jraob4BprxkfNekfWMUDbjI8cngp2hwwofNbLulw5b8dFM1jMSaMX2cz6qsr7rrrvWjo2NaTM7gDsLCBvKfbAkabC8m77xOQocwP1ZwOOB+wM6a3IUrgPDw8ODs2bd57/btm0bwHCjrFkG58yZoyN7P7Bjx46BiYmJPD3Fd/pDPam+yN+oPugZhK6UBVzi7BkflbSlP5eBrCsDQs8429FflUEDmSfeO/1pR38VXyOZd4rLfNX6GtBfI/OZ6rCKrxH97WTeDX+ymNt8I/pzmU9OTtq5aC+TgE57E3AlcDHwW8CQ+2R6mI6edkYLGs4HXgXMAeqCTtHAWevyGZEzUAisYb5WkQg+1RN5WtUjXdJnKAQWxbq6dkp3LovMabvCZeZO6a7KojD6rvF1SncVXyvZtyKiWk8runPZ96rDKr5WdHcq+1b8mdYp3bnsC6etVm3L/w/A+UWCHWXyzeHzzz9/1re//W0f9HS7zMuBvwYczo4BhrInzpGZ0Erwpo+Pjw+MjIykntayGnVtR2yu5qEbwVuLCh4aGqoB47oJueBbKdo6gx95k1Z5leduQrcGIz/iMXjtlr9ch500Mjm+fuiwG5sJXXbD4/+0zUirdtMstLAZ/VBjnQ0cCxwJ/D8gTTO5Dgw/8YlPXPzIRz5yEqc18nPAkwCx6aTTVhHe3UXPStky9Oq03Qo+ECqwUHRcO1V4N84a+FooILI0vXbrrFGR/PTitN06ayN83ThtVYftnDXw5TbTjQ6r+No1uIGvXzZjPa2cNfDlNgN/U8h0Ep7tSfU5HdfO8iDgUODTQAqD55577u5vectb1s2bN+9lLBi9jVgzWkiH1dvT+DJXNHFte1bzVEM3ztCr4HOc3TpDN/TleOI+l1EnPVe39AWeuFZl1M4ZuqUv8MS1iq+dM1Tzt6Mv8OTXXCftnKGKrx19OZ6471Yn3dAXOPJr6ETaHR4jo/A5R7x2oqPAK4B3AcMjj3/847c87nGPux9efo6FEYoOmjvrRlZfP8EK16+Id6V3at26dRswyO7GfRRkRWxoyZIlu9AzpEaAleNNNBJppYbkMkDHyNKlS3eBpjQUNx901eUrCzS5UWHQvZCVQocYA+DaTl0bq9nBV0dXL/g0KMIccC7whhZzYu3atfcSn+YfxkXohK7I2+xqowCPpaxQ+NTdd98tvjrdIIM6uqi3jq5muIyv4jOuEx0GXf2wmRY6LOUQdPWiw15tphld0tIiDELjFM66mIbiKHCfTgMwP3Pa6cWYgYHXUMelN998873JIdgqee3mzZvfTOS4BqChcW/mm1j6ftpPf/rT315//fXDd9xxx9RZZ51VZ/Dk6yp89atfnX/jjTfacgy89KUvXV8tfOmlly5iiyitSDdKr+Zv94yhjLz3ve9NTnT22WdvQkA1Bt2Onnb1N0p/z3ves6vxBx988NgJJ5ywOc/Tjp48b6f3ITN0OXnGGWfUbWm1oqdTHHm+wGdcIx1FejN68ro6uc911EiHga8ZPZ3gyPO001E7evK6Or1/4AMfeMwf/vCHS/C/VZnTaqsju+yyy6tpHN+dHBYDvoIW+CSuExA6xFKznj+22267PeoXv/jFz//6r/96Ob3d+L333ruGuW4sRHVKR12+ww8/fGjvvfdeBmHJacG57sorr9x87LHHjkLYMntiC0V8XQU9RJx00knuC88r6t0CvrXN6Oih+roi4JsPvsUmMKIYu+2229b86Ec/mmxER13hHiJy2Y2Ojk6GrprR0QOKmiI5PhNCV3l8TkdN4R4eGugq6TDHl9PRA4q6Io101YyOusLdR2jzYwceeODj2NO/klHJCE7rsHiC3neEnvcb//zP/3yaDuvWza8wrv2JnOTqMGkEBXz+c5/73F9dcskluzJkHF+0aNGaj3zkIzN2VupO4fzzzx+iMVhO3clpaSDsFRY4PDUDyl77iU98oqZnSgVn8PPUpz51CfXPtwrwWfeswL8z8P3lX/7lfBqfJQU+Zbcjx//Zz37WwxZ9C89//vNHma4o0yH4U4+buE8HW2yAH/SgB61G7l0Ng1sRl+MzX65D8S9evHj1zrQZbHUrjf5s+RX/ztBhK5uBx8191qFrR/ra5fB1Mk47DgzR4NNfDv2BBuRwGdVhl+CgTnh1YL16gEWoX5NBA5vqt7Nav4ajAWlIPmtYO1Pw4lC4CrnANx98qbHYGYoWhw2OdRf4RsFXNhZ9VrQoBnQOnURnUZbATnPWKj6fxSde8ffbWa2/ajPY7FzxmbazdNjMZrSjnaFDeWFaer1XnHQKZ02jYBr+XcGXhp6xIpwWFUiIYXKa53EkbVM/W0kJiaACNm3atC6evSqIfvesef00Eus1qIhj+L99Z+KzbnEEPnFLQzz3+1roalNerzJW1nlcv+7Fx8isys8f1WZ2tg6rNoNDje8sZ1UvdJxbsBNvky96A4/ej6TWyQgD3mxLle5pvVJmetqFDH3S3C8l9PHHIdWCBQuWIoDUq1s1LeZ8h5J9RFNWhdHGMLzkmxXw2Q57ykx9vrFucUS19ghOBaQl4vp5VXbgSD1r1KuMlXU89/NqvRhYWmCLesW/s3QYNhO4vDI0nrWzdNjIZpxT7ix88oO+HDl4mw7jeGWNKfljaTRmcA/K4PCYVWO3UVKrzP2SfitAwTvfAsewE2wm2nQEmyZR/jC9+jKG4xqdVHcLjhhKvrhPIRN8OQy2NzcR3ufvDAVYp3WLQ1wxPOZ+RKdlAUNapLdbHhvlHznqqKMWbtiwYYkNIDjGWHgqh8fKut9OGzqExzQMlj/wJptx7t7CZtRP13yzwDSHnYo9qdtGYvjOO+/cqM1oP/Dcdx1WbUYdCtC+02zGumnfk40yj7VnNSodBDruuON2SYZtz5p1AikTAtlBy4Ucpns/hLK4hQJSpZ3+IPgRDYiGYIS5ztgXv/jF33/3u99d9+Uvf/m2Cy+88K7TTjtt7bOe9Syrc1zQLTiUj+Ff4q8q+JjvVOcn/XTaqrOKy+Ex4R6NDRqH3/rWt9pCSm+3PDbKP47MRmh0PTEzCb67WAnfns9p++m0VWcVj/wFPnhy373qtNGQqp+u+T7vvPNGTj/99PXahzbDjsV6beacc865i7fGxpHtwn7psGozOqo63Jk2Qyflm2iuKaXjrfpe7rT27IMPeMAD9qJ3u4mM84EpjMmtHVu/c4B3PuIRj5i7//77L7YVtSImwutmMufTWdmb2x1ihp7ylKdsfPOb37zwv/7rv46l6gcCc6h/cP78+fO4JnxbtmzZhuI7XZ12aH03cA1wLTAgvj333HM3eErDh3BW0yI0cq5I6+Xapj75muSwyqqf/exnx7Lh/iB6iSEaxHJa0C1OeBpFZs4lf3LEEUd8QyOmjoTHuho510zWJdrVl6eL30bq3/7t3+wqbGgMjwaOAnYDynka9w2DtlDYRMpbsQkP89wI3z+kwbrruuuuc2S2ScdqWFkHkc2cNS/aRsd51o7un/nMZy7GzBd+5jOfWU3jcw428UYKavf64iCd6iZs5ohBTjodePXVV1+PQc/HeLikE0x2yclhLYACBhlqLdNpyTOA8Hpy2nBWWqvBVatW7fjABz7wLOrzFMcyoCZgfOX4Hed2SFmT3sHDNxk1vOhNb3rTHfC3hPomWtHdLwW0qSec6EQU8H787P7ygczTUc8OeKrLgk5qpjI0uDeS6cXAt4DA1zenzZ0RnTRdDY586toRxRVXXHEL9BwMfBA4BugoMMrr9E2tOzlFd8Ff/dVf/Qt73nPB29MqbifOGoTrZDS0C/QJrltplPIFVBvgGOlFkYZXbYbec56dGA3Nf5PplcA7gNJhud/EHu1BKjQZjEg1nEbB1titHRVkeoOhTqNiNXEq0J5V5a1cuXLb+973vleD891k0lkdHklcCeQbKxqPcZgZxzDLtDxfk3vpfCzK/v6HP/zhIzlBspmhxb2tRgb9GOq0cVaHwdL1LOBK6Lk/CrIVGofOcRqUOhmQ1pJnZaJsrENZITPr0ymuAk4FxCfeui2fXobH4YQ23K2cNfBxWu0uHfawww7bxCjtJMp9n7RjAOlqyZvpyMVRQ+KPZ0/hjVFfo3Lm2YNjoBdwuOBV2NcWZLFAfRDfcejGWa30k5/85HrWCbZx2GeS9YjwH3UgyKNB+TcdRYSzmpFe1dFC03DTTTdtT4KHOfTd2FmjdDgtBpII6cZpQ9EMjUaYOG/40Ic+dALlX0rdwZxM1S1CQNcQdNmoDIEXfaelM/O2gjSEQNHOwRfzVv/7OAa540tf+lLbI5Uzcdo2zioP8noQcDFgGMf4hjBCeRmC1iFobsVXTZqyUCaWVUbIKt3zrEEb/gVYAYg3GYw6jDkmxYe6cdrQoeXaOSv4UmCOOf6Qhzzkth/84Ae74rwXQu9CyudvgtXwRKHyGXkMF/JI+rf3AW+ZnuUNu0lOggO94qKLLjqRN9A2djOn7dZZC/xTrBOs+e///u+Jiy+++BEc4/1bOrazSXsG8JAij3TpXKlz5FqG3FnR4WbqynvoMl9+44rsKJ79EiKnl4jva5W/Ttx1gIiSk3q0DkFsYw7hHHOQYcBcFDLBWeMwErLWhlC0AtfZGa5svOGGGz5Crr0A61XgBo2qDuiJHL+jPzTIVy5gLEGjvEWcQ6iUnedxVtn2oGVymPhTQIW3bJlw7q30yB4tmSV4bxzlmoY2zmo5+RLvW4AjAY3WaYetcuJH3gzyKs8kNQXzIsuUbnmcNfJapTxav5/LEedXgZJvdXj00UcnHVLPkLr02XjyNQyhQ/N36qxFRcM47eQtt9zyDMqeQdwY11kFz2bRtoL28qoc1GGkYTselS2fIz67cpvq0jmGcNRlBx100GfsICg369BDD22pwx6dVVwePX3173//+/cxWnwRejsJnzgRu/k/4H0+aU8D3BL9MaCPlHrQZsgzj2mRByW2/Ou//qvOGr52FPfHA+okZKRO36cQlgI3Ax6OV8EOLzSmc4B3AjqUcWXIFWgkSBseI8zzIbxBernb0MWBFNF5rFd8BumQoNt8aBTYh0oWbRpOCK91n5uRuQUoendwWK9L3PZi4rkM0GBCINy2Dh04Yaqg03xkdi/2l8BKQFrDAKX1Vgx5gjm3CtWJpzAADaIukG+wkk/d2NjuU2S2PkFefw7Y0tfoj+eO57S5DpFl0zmrdTYI8igtn0cnp6Ab6Uh6L5zwTp7dJpHWFMjnnqNysGwzXae8xY98a6/iMVhuG7gexEsC61jQtFd3m6vhnHYGznoceD4G7AukYIckLh5sYBw9FSkDvul2BvAjYJi57yLnvqT7HuyWbIEsfK3hHJayK2Wua4elTI3Cfa46ba5o03kLYf21117rsPRE4EogBOxVhT0PuAiwRaozVj7qNsSkezl4VM4Ai2Brv/e976lsw+CKFSsG9tprr73p7T+DsB6KMLikalT+1cCxQFehnTO2Sy+QKWN5XA78DnBf1meJU0EXAo5w5nGiZo4fr+PedYIxRgarWcHXuVNgxX4+Q64y/Ve/+tWa22+/3bQtwEcBZahThMHfy/1+wAagLuQ6QlZ1ztguva7CxhHq9gfAETjjBI5kLux0+HvsUJxMz65NJBnB/ygr+ukstJkqOjYqD/Io3y6wKcO8EeQxrURfc/LJJ+/F4R/zpr3wzDkGZuCsT6a6L1onIXpOeah+6mdKOyRam/Vcw/G0xf/xhCc8YU/kMFFxVpLLzrGpwyrMnkI+H7ICetDYpx1E8LOYO+7hvMqelWGXzhrvsyaHy5AGDb8o4lSCWwA1gOFuveqqq27BKe9lHraFRYw5Z555pkIy3zaMeZcnPelJaxHCLbZsGGA0CCQngYnH/F6rkIRNfE1oNacNZ7WVBFe03s3qt1572EZ47HUN2zhMsRaDvVX+mA+NHX/88Y56khzkVZ5NUwbKAmdVViFXW3FDzrd8hrw12hq+0eH47373u3S4Ah4G8zltl87aim/xJofBWF0NT/QxbLz5Va961Rh7+zZa23CesYc97GELeA96mzwqBxpkt2Zq7CB7lndD2E3INvhPfNPD3o39TWiH4F6AjdhBJXo9vALf4q9zZuMqQdnpfC7qfbpIs3EUj/Wl3gF7sHc12d7WqYvpOvUcRkZf+LM/+7ND0Z+LRlvzxsMCnQQR9dTDRuUq1i0fCE0CWrVq1d10gnMk3DwXXHDBPbSsIUSjjgO+CURcysfzY4BvAyo3ccy1URjCWZYHPhhfz7xvAR3SKK/sbWOV8IPMJU6loMK0buv7DnAM0C40xB3OaWGd0yvKmA8NoJ/a+oUvfMGztK1otojH924F7GHtDQSN5aXAe4t7aR74i7/4i/kMC1NPisLHmAJsRoaWtwUfQ9GrubW8IQziXO7fAkSLr4HZsy4DyrEZ93WB7bY5bIloB/I1Reu/HuP2La12c9aG8qpDMDDwQ+IOB5SRL2yPsNf4WV7bfNEvf/lLdtvmKz+HiNLshwbWfu1rX0ty9rlJCNwnkX4FEPZkdvX+COD7Phje/va378LCV7JRRmpb6Nnn0Ql4jHMKWjay4ttuwcc6xfE14HhAOVufcUKinavrHXPRk7JURzH/dv4+iq1+/vvf//4z6NTUdeiQ2xS0B+NfCbwDEIdx4t4ErPRhRsGeFoWvdbhGCzL17//+7yv46sFejNFn4cj3vutd75IBgwyphNN8IEhsMCnD0WJ63yqkt3xsHRUAGZMhcx1k9VlDlrEIMmrwUMYTgFuBEDK3ZbAl/z0QThfKSRlsCXHa5KTg1OFcKJiikdjG3ts9KdP0Is/+3MdaQBGdeJQ3lRzDYesP2kI+Jd8aKz1P2j4j3yhDusQjjUV6RQ56ckVHuehp87oXUf65gA3WPCAvZz6Ho79nYciytz75yU/el2vCC582TnXDZNMJlhWv8lKHKwAXYPJgHhuKVcD9igTzugXlFsY6Fix36LDgkk7nrmlqdfnll7dzVrMH3yE/4wzGi/t0wAYrNZCvf/3rh/bYY4/F9Oyj2On23Xff/fZTTjnlThqLbS94wQvsxVsF6VZ2xwDq0Xt9J3CJ7zLgw8BtwErs42yc9onw5jzVfMnXaHyfhLMqE0dElgs+uG0fLGDLejMQhqaHjwLnAO8ERJRafq6NQmKGocxDMeDXAY9GIbs4LIDoan7xmd8QhBpn63Z/QOPviAkPYaCAPcmfgvthLrHz8FrgzUDeAlqnQT7EH7iNMxj/a+CjwD8ChsTX9O3076mnnronSvDcqnOTqeJE0W6kvgZ4KiA9wR+3NcEewRC4vZr3WODq4j53qIG8Zyd9gLOzd+BcVV0EndHTWEfwG9doiKwmD+bVwD4F/AN628D8aj/nV/A5WF2XKAoGPq9nA88F1F3wx20K4g7DNkJ+jQu9pJHFiSeeuILP5ST6HL10MUy0LuvcG1B30RhyW/Iv/pD3AD17HMKwl1+P836ThuN15PktEHxxWxeiN7+AlJcD8qBfWL9pbwVeC1TDR5Hl88CVGjbkO8HIxXL2oNZV9a14Nr1hDyuRMwmJSVqQpzJH+B5GfApEOZQjajp4n0EIJVee+K8EdFbTSwFz3zC4WMAhDBuaFHQehhpzwW35LwIKyEZHgYZirVeBmCenyXvnl4cCFwJfAVKrzNWyKeg84awIfZi5yDbmIkeTeD2gEvcDxFmtO57DeKwzKZDrL4HvAgbTy0APa88jHWWQZ3kvI6Zvoty3eLwZMN244Nv7oKF6ld4VwGswqh+yCHS0h0zkT5k6LHbKQ3oE67Q+e/yrgHcBDwJcpa7WLR3KW7kLUdb6ttLLXfHyl798KY3CpLiISyMY+fa+gxB13kbebxT5x7nmfNfoGpxBox9oWEoDcTo6/QllbOxCTkVVNZfUoBBzWBFrveK3vt8A5wEG+RV/khk28jYaBTsj89lIxKm0B/NsEGdXQcS9BstOMow5CqY/w71KG2P+KCMJiI/hQBlHmgwZ7H4t45DmTUBHQYPNhsMDLmhh2OMMbaboHfalkl8A7y8qU4EhbKNyOqr35pOmE4BPAGWInk7DImw95JBD1n7lK1/Zh2/s/Cs87kdGyyn8ap3xbFrwLU0q0GCrLN54Nm5Ao2WkYsPnsHRMHr2Hz1F5b+C0lndY+3rzEcQlHoP3LWnDkHbQE9yPPfJ/ue6665bS691pQXCnhShHMz4T5MfgosujAfmW/uCzehVvBPMJvsb5Hg433FnMX7WRjeBKeeW7C6cNmZ5X1K2j2PsZTCvpgT8dJj2DSz2Kz3nlPHR4Ofc22NLXzCeUwe6AIWTq/TVA6NSrOMYYbu/G6act8Ho9+JSl8emfKWg49uHekMtnOqbNbzPi2hRLyQkZLYitrGEMgx5F4K4EmpaE08BpzSvDOqsKPw1wSKPRtWSg6qwO2TzBxJxgtUZna41z7Q28gbo+C0TLz+19yqvcB63iV+EK/ZQCpniDYhnCdv6nw2xhgWndO97xjo2//vWvX4DS9yJuBzyKR1laV9SX+OfZqyEpjGu0wk45vgBYLhky1zpnlTd5lFfTwdfIaS2vTC8DzgOsM/Dk+L0PSLQiN09YJV2w7rDyP//zP5/9kpe8ZDvH/O4Gl87kaGZ3F6YoazgDsFHTMZSXcrPOVnyTnPKNYi+X8pG4C5m+LFJfjMzuYRh8LyvDabXajF04rTjFby95OiAd0qQsDInXqrNip77G6YEV86bFIPK8O5WYLlPc1lyCx5pIHqyjJtjA03GlkQK40n4sV5025YPvQUYuu9QU6vChV4dN5VauXPkXKPlIcDmn81SJTCmIYQRingTYs58riWeFaW/wZeBw4ArAtNJoua8LjZw1zgaTNslwbg2LMzYAoBpe9Hd/93d/yf3/BX4HiDPwV68q3DiVH4rmduCZvDkx16E29LvSF/Mr882n1zu5UMAI+BzqyLt1RX1VPD7L4w+AxwPvBMRnfSlUe1adVd5MlNc2Tit+w5uApwAO1S3biA7jPIji8b8o50e/fK3LufgsF6Jiy0ejw2l3I97wjOlLoj3oT/UR3wyX+X6Ds/4t4WXYjENu31DyLZ4t1lfdJuzCaZWpeD8HHAF8FdgOiNPGKB379B596TxBq9s8mGp6M8357THsgSdbLspyqQniub2IUWbWY3gs4PqP6aNuG7E9tqu963e+852l4HgY8QZxuwXoG293MZ0aLraYplM7/JUp54I3Ax0vOtnavuhFLxoBnkcL+R4IgY6JYMA6nQt+A0NewJcXF3JvnHu1BnuKGwFxGjRwmW0aWjlrXsh89Hx+jXE29Ex+/vOfv5V056cPAfYGgkZuS2exhXwdcDAQzjPEsOWmRz3qUSch2O1sM8SemXyorEOAGwDP88aw3zO9X0FBHyR+LhB1cZtw2Zj8Fvi5EQRpKfO0ctaUu/jpIF/QaIlDgQMAe9s8eEx0nAbgxTjNsSREj2NZ6Xwg8DvAniC9u4wup/hHwLnf+ta3roLP/UgL2uXDHu5tRVyOn6iU7w8Y8M/5HOoIvekuNoDI6e5wVjNFcM7sfjD4kq5spKJhjjxNrrk8D6D8g+i198A5Uj3YqN+ktnEQngg8H5AHj0E6XB5ie+dvOD9wEffqOLfJsNG/J15bcXShTC1v2sXAWchl6BWveMWSY445ZjufXR2F148R/yTAuqTDq1taryL9g7yYsoSp3MZsoc06x4Gmi06DbNDvjiI0pI4cVoHecccdez7vec9b99znPvfFCOGtOIdIJFxl2brtD9wFpMB8ZSFySwsZLKHfW0SbVwjFF9G1l06dNUqF09IDzqKVHoK/uz72sY/Zo7cKbyfxVYCK0An9Ut3tRx111LErV670y39BcxjFI8h3LZCMs3DaId7aOJOV3H8hvl2IelK+Dpywpr4O8oeB1ZSrPiCbF3CW/EM4T/q8Lenyoy7tqXTCRCfONsoWzBLmnLvyferryO9H+9SbBmiDdx7wJqBpYBi8J8PsWTggbcR9PWujAjN0Wp1t6uMf/7ivi/pC/yCHTqrfol5JnpsAHcT8kzjtMJ9meRnfr77osssum13sOJCUQujroTz9CLBMBO9tAK9D/65p3IFM92BL80ziza+cLG8+5bsJOAQ7vefHP/6xHxA3PTqEtg47hCJ0Jsq0DwrSQxLR+rEkHh+LygtLmM5vkIBhWsgxertFCGEx79/uTw8djUNfnVWECKIcHnOMb5LWehnH0+zlNeIq2PsapDMFBOiYOt3j9JszZy1ypEuusLR9RaPlsGr2a17zmt3gbw9yVXH5rMIMJd8dON90iey3g+Fx9A4qtoYOaJvDwYyVyEmnm4XzpRcQsuq9reGPQwZjH/3oR1cjFz+DW/MvbUW5kJ/yrMPn/i5GPKI+2jmr9c1geDwJX4Nuv336059eqr0xrRktekzpivmm9lfqQJyFHJLcGF1VPzdjXmXpNMMFVvVo4+7V00weM3wk/vA+Dmd8Bh9x0VNntb5wLvMbLgJugc4tlNsMWH6e79am1DY/aW5J6zLYzmnDWYs5wABK2MgmsL1poxDCkOAJ50McNbuD1tX3aifdwNZQGxWMOBiqWQ3uYmg0QNnktDjRmJvxHjwAn4smiZ7sam9iSAaK4EpnZVg9ee211zp87yggF0/obKXXmgCfH3ZzUaGKr8YRenHWIKYDpzWreihpQIdpLgp9UzTUY/6NCE5rvhq6jKgGjZ7XyNYU+Rs5rUVKXN4HPnUQhyIaDYOruHzuxWnDZtBjahywmQ1FTxl0hb6VSzSeJfp77rlnw6Mf/ejkWDhg1WlDRi+jwGrAhTrfR3bl18YAc5uY0A68L8B4yxlpfnv11wOGKYfC5HeIbmM/30/EeN8qJO9v0mqW5cJZoSvlZ0jcsSFHJd0oIAQPvtQiduOsgU+nddFGpzWu3SJG4axJiZSx14xGJ6pse2V6sIk3RDabEdqrCq8pPxNnjYo6dNqUXR3G3BD+Jm1wuYYB1xlv4MivvEY2Rk9UyoWGPh1GIE8Yc5k9x2dkLzqcic3AWywSljRlN3X0FmlT++67rx8nb+S0ltEBbwOeDGzEZvzWtDIEXbmgpXz0EyGlcdVZbwdOBjYCpiUacqf1a4nENw0cqZw9xOFox9QpqAB62hrlceSwZhjMJHkdLySnViHKdXrtRAH9cNagp1OnpceZg+BTMQTf6IRWVNn2SuPnNkFLp+2HswYhnTht7jzwN8nw1B6ip2AP6/AxgjbDfH9aeEVkjs+oXpw16u/FZuCxlbNG1U2vdEhlQ19peO055fX7nFs/Ab5ceHR3xPUZ/aYKThWEq4CHA78GLF82etynD9wj12QzXOc0clxkPLBq1aoFrqruYGSbvD162nx4zBBvKUSnnpX4nr7lJFERWimgn84a+No5LQJyRTj15Aje7ako2vOVYd86jcYKKgpvuM8qjT0jo2Arp82dB5rS2WCmKDGf6glt1WkxsHJ6k+Oz8pk4axDXjc0o92zVNaro6urL/PnorKLDCffmn/70p/+G9Zgnw9+LsZlrQJD0zTU6vA3cfw1wf/ixwB8AnVWnrwu+fMAceKsJ2qMjvgjgN26QUWI6ypc+qZhPR0l0juKXASiXvmww468lBnKvjRTgwlB+gqkfig6czZwWwS/hUEIyNhQ9o541cMVVo6k6bT971sAT10ZOC3+z82GwhxOUfZSZyTV3WkdlPM/hq37zA59191OHndhMP5w1ZFK1mXBaD0UwH5/NXz/Oh7+NLDB9gDKPBg4EjgFOAo4qnk/g6iKVwU6vobOmVH6Yb6+j00zDF3tUfc+r/mhAxuXeaTqFEb2LPS1DXxdpUs/Kfad7YaniTn6qCnBhCKH0PGdth7OqAOe0CCI5K42Vp7TaVdF1etVpxWklGFbf/5jKeqtOyzZD+cdY/XRWcRnCaVn5nWL/chhD9sPpyWb66azT2Oob+txm+umsga9qMzqtoCPRoW0oXsmz1zQ4R/0O8BXgOiC2NSO941GU9kj59E8c4azIeIB3oDck4ZpoYLLt4sz0Q/HL1sZGnKunOWtNRfUPQ9Q7zjDgbpwlDcnNouA1vPrsaahRQ2+DPNUo88cQZSBTQCk8evbt8HjfpKxawwyfdVoUsD149MrS/93S0mHV0l/DR6tyyo456iYOqCS+xaeMbSBbles1Taetyg8dbmigw+CjG1R1fMuH/OSVgG9bMQzuBUdeVd19I5tBpuPZ+7PRawZuac7pjvS6uptFODTWQfPABoQ+Mj0kjgR7VlrGeExXuuQFzktqImf2kAyJKqRoylYZgfv9peS0tmAOHSsoLGN6cKFAWoVITzjIGM8DDLvTi9lRmCHxbHjuJ39RdbrKC3KdJY8CixXbn/Oc58S+Zciipkz2IN3Bt9eSjyxPfjvIPusIX24YXLFixdbAyetru2J47crm9XR8r824aFcpULWZnA+ztqMl0kN/pZzkgzlzuf2h3QBzGKpW9/bLMhXaun6s2gw97E79bx2no/k6kgRHTxuCScvzrvhFiG7Z7t/DEn1y2nA8G4YjV65ceYz7ljitG88ud6fWyKEj5yznBS1cNdZVgCeMHNCryGYKMd50nd65xL7Fc3q/FCNO9XL1W8Wp18EAylVi8vYt6Kz0dIt1HL7osO3II4+8hxf8D8XoHltslMtXOz6WkedowLO87fie8qA+p3weyXzoYI5W3qVs6QFneWSz306rs2ozzmGhzZ52A7ymv7qs2Ix07w88EnDroh0fpmuM5recchqQfvnAVlIDi41u4X6K468THCGdz/VhZDvcvIRWsp3O0cGvc1Y7EbNqM0CyGa7zTCM6hrzik+6ARHOWzm1noZiO+nHycsRLxzn48Ic/fEFyWL0ZxcaeWvpvHbtlFJKGihA8VFFAZ5hrc6lUmdgD+A51/oBjfFcztHg/zG9gSHPvb37zmzWkJaeF6N2KVpOogTcCvwKcG/wEOASwrrLB4d7gs/Eq+kbgu8BNwEs9yM92xAIbIAXvEMrle4bESQHEl4cmyD/jkDsrh0W283G49a985Sv/kc+SfJ2joF/mqwpX8ilOFyqkt+q0wcfTSZN+50ZePdTfiO8kW96/PJzX/i6Hr39ju+5bvHXzfhoMXz+c6rfThrNCTwochtn8zW9+817nyshXox3myyO7F8mv5ir91wKepdapGvERfD+U9J8B5rfcucAAMtydIfgs77HZTbw5dQ+3mNGdoxdffPE/weN/wOsPibsKsIFrJFuiOwtVZ9VmXD2G9x3YkkdY5zklKMLeXB8FnAgcBQTvyZ55rtoqUbWBRULrS72mzgqOtGvhVNXAQGm2Z219Y6M0GIYXaQEqqsJx13uPIGbqtAkHgn47+I6GaRmZwqBORxDPFIfL6Rh3+ocBGogh9oBncVDaw9NvAGxVpfwBwD8BBg0jD8lQiLgI2A8w/xwE+26c5Vi/5QO+OLeZ8NkoFQaWVuXgkyIzCwg+vc9aNA6TzOdWw9sLqPXMQr4TKOTP+YjaeQy3NMBS/sW9fOwF/DOwKyAftubypSGaXpbBiEZf/epXL+Yk0mtR7uEoOn2GhTzPZ4vp6b4EAZ/DGrsr8ZwNbms8lG0aqCv1rJHBxj3unWPqtMy5BniDaisHEZ5C/reRLp/ysQr4KGCQjzzEs+n3A8xvubfQg55MfTu0CxvcWPDBdiZopJ4K36eSbxKZO1p7DPdvBAylnKYfO/tt5KyWpJef5GuWazngv15aGNH4KZjrSHKP9RrgSiA6iq9xfzpgkLemxsUIdh4jPXWt//llCm9T0GbgL7UM6SyxCjAwxCgTUgQ/DK22uErsczit86RI7+Lq3xmM4qwPC3wQ4neDrcKhTAqhcB8YNm5nKHB04UQ7iApDO4z7RebJQihmP+I0CkN6K8XyGNWhfBBurXuk00n3/ZK2JVpKhD/jnhb+0hwL3lwgidVCD9Qb/MuJ1CiSfgiOtgd8eowxQvAhjw7FFJB8q3Cd9kGAIeUrDubvxqH8XVHqISoaXkwbS7kK2aLb0GH6lGiR1vVF3aHDspy8AOqmDOqQUcTdvOLoac0Hm59y0hP6O4j76IGC37guJ810g/n9uw5xPJQz0NvhLf+ObzJiGr+HFAaejEkdYjdhU9EIpAo7+XG7D5sph8H2rFm5Yc9Wv+ENb9j3G9/4xuV0ABeQ9xHgTPnJF12u9nk88Gngm8C+gPTVOW0xGlO3hrHiraLpp+JX3yR+e7ynmpy1cJ6ajD6ggC30jMnQEZyvISnUroPfnEVxSTHUE1+Ty+tJzKpw9vNW86GsJOzCiSwXSrVMfp/XoUCiXPq3ABOZF28HdUPloXA/h5K2KcxbKDyMy6iOAtOK2e95z3uilUxbN9/my/eVwsF/ahyRuSJpdIwx+As6qtf0behVq1YtRze+XTTJkDB6VstG/iRTGt5NrBskwyPv6A9/+EPn8pGnQmLjxxUrVtjglmX002Y2wydKx+gVtyhba6OcfAZPyqTOcAusxofRp38AiGKPecxjNsFH3uBGvthiivpdpHFhyIWorgINwnBs98Fb9RCGtOl0D4f362yMyO8owF7dQwvSk4NpwnHADwBHh5YvZaizIqPUwOOU/s+S6SVf3JeBry1uSgXJmF6sLVMa3LhMH04LcUM/+clP5vPcTOjVGoYgbDk9gMPadEABYTQkKgqqcIh3qJXyIYz0eY1Ib3GN/GVPqVExfNnSokxKwmmR/zRZ4BtikShazXZFEy7mGL4VZOve0T6rCkKWmy2DAVSdNpdPaYhkTfH0AulsMOV8EXySfdDyYL71NQrqMJyWXmKURRp7gY4Cchncb7/9loXztHLWvEJ6hY3xXPS08ZjzF3Fey/g8P7Kq6cXzAnGv7oqeNkVB42KHmpHe7sp0bP5ll13WrGdVBzrTPsCXAHXt2Wq/D6UfuNjmkFyfskESHImaJu17ApZT5qYNurAazsp1zG8oE98ypLPEOFLLTJGowhkepxaOg+BDzFUWhgIjT/Xqyh4t3XIYS86K4PEf+a4JuUHWJPA1xGTQRiKM0glrMlUecucWl8bVaVDh4bRsVyw+88wz7xv/NakERSXaTD744IPH+DbSGuc6TbLXRDNEX4sTpfPc1DMfJcbQqCZf9pBkBY/pUATXSRbOnCPHEDjLmm5rZKsO0UHqaW1wdYp2wWE33xD2o9upge/UWa3XxiR3osIJa2iq4E9pubOqQ/aW2za41lN1Wha+lvid5wqOukdtC5htAvKp9qxGB83v4n4ZoFFp0/GfyjomKky2kO551tAt5zzc/AcCfw8MoLMF6D3pWmf1iymsL7S1mXSW2Ao6DSqcVcikcMo4ZHF+EszUVIOjplfkUHByVoa5a2kc2hKVVwIzNRNwBYtQGuKzHL2A+6ypim6dNfBqYOBNLT33LRVeKCgVhbfxE044YTPO0xWPvGC/Hr5SwwTN/rG2Cm4YkPeww26G+Okj337G5WlPe1pdC9iwcBHJsHJzfEhA1anDZsHtPIfdyKHj0Vi1rqoTgW+Qxj7ZRDUvjWTNMLgXHRb4fPUt6YGpSssPuxU2lUjhT6H9F7mw7yAves2HEvE0QNtIzlrc+0mkq6H9b9m+exo99SsYVruboSGGLQS/z2VkcxCLvfPgzddad+isnTbwSQlU2lXwbR1fz4pChdPGY3mFIHuBIHRtr2/5FAooh0oIY5DPcdYNdd75znfOhxb3+dLcqpuetSS6uEEBCjoNPZopPHdWafT90mo9nT67sIG8ktPylfr5KD4Nr/PyOhfKXsyoY4jWOR3kb9Gz5kUb3nsiyoRmTpsPu81Hfl9qKPVgXKchd1rxsXq8tFFZGoelGHFKAldXo6O8voLONeG07u2zWFrX0+bOir24ztGo8YsO4pQCRwxJtRGJvRg4lvdp/4mFtq/xhZWP8NXEJ2GLXynSo06nQM6rT2Mk5ULnxAEHHNDNqbf7Jr9U0nVwdTUK5U6LQw25zRDOyuR8LQbpfLTnkCvcSmjFFr///e9PQxifEdAS5gAx/+hZ0dZVhCn/jApnTUNNFc4wplR41VlxcBuJnow5EOq01JucFrxuR0VS7lSD/oEwxjXjg/zQ7JHJhKOR00JD+XUResS17IMm2kqiurwJHXoFBjHuZYzCUoPuaIxvPvnt5/Q8E2cNspDnGHvdq8NpWSz1KxvTwy8y5c4qPtY5mvEXDhcr/TqpurauW4H/CxhG2WLa/IEPfGBXTrRtBfcbwGGdCWfYDLZ0KEN18ZUf2UulO/jpqYeNehnrlwo3Tqe1ddx///13Y7EhCd5Fjg7+JyWqbHnNFW7Gn//852m4irLLz0pihFvDCFtW1kEi+6STl1xyia10cloWk1T4IItL6b9TrCJo6qC6jrI4p6WxS4YTCq440xSGvZ5hW7M5a0d4IlPuGIGHod0sP3XjsNt8NrgXXnjh9igzk2shr/SNYOp1WL+cntyP5i3HnFIL5ZpKv3TIULP8wy/p5jDJEho8v0VcrofkMmjBm07nwpHBHjeGuldx70jF9LFv888M/IfybTfffPPogx/84D+A50cFLhekUk8tr2edddZG81KmqzAjhxVTlVmHqxCW9mk55N73t3xC4TQMSWAOVzHs1PMxvNjM4YF00KMrKbTJTEtdvtB87rnnLsFhXenru7MGGTjODow57ZzrtDaEERh25dsaET2ja65DnZbtNBdDkm30s8ENItUhfz96N7pLxxiLt4pSA+/iEs46o5FK4Imr0wYPcziNMI5pxS7K1ZDzniKa/+hsjfylruF0Pkr9q1mgHcNO/aBBuSgp7+zd1pVpjrY2pREBtTk6eIJp/xiqJuef//mfb6AFaTbEqMnb7QNMp+8L5eUwtO2cZtop+MCTXmjGkMoWUcE7DN5Zgfmwn3CpqV58QG1kTY7eH8Rlz5YHnte7yJjH9eueBcgxpjQ12xgY9haOp/a9wZVm9/Y5h7w6p5+FxW56coUTh2BsUMJ3juHeDkq9eNWx/cTpBGe6rd+FKoPxab+fa9QTdZjeUei6QLNaGS7WJDFcXRDzk5qEPj1wJKxmUQYHmg3UEtEnXFbD/NhhcFm/PVG00n1EU1bFSCV9oLyM4IYeIn/s6738VHVIDzif3qJvNpITTN1DL3vZy9KBgYin0fdvL0sZR3y/rhxNrbEZp28d6nC6O57+FrXk2FPrgDrp/YE3AgadWmdOvReN67uQqzyaz/zR097gPaFr2XZdYBpP7S9DNuhK9JQLL3T7aX7Sp7d8ahA6F8Cg0yoxraSvkaWhzgtf+MIlDOfqVo9rCvfw4D4expT2zDitxe1Y6oqgo1OFd40Vw00npiwYPa3Gxb8E1hhd1xU3KKDu8mE3hpYWCOEz/S0IRfpiJzlqV4MZ/qYWCPxJhzjQkKvHYUt5/pneV9Y5yqFRhzqMIfqXCjrCgZWLaecCnwQeBRwAPI56r6ABfA739CNTfmSe2wEb4TH+YeA7PhB05K7CTBUR+7AJqQsFAnPXDQyn9OBhPxmCsO5b7mxNnmWmPb/+mkoqYAThpzN02s0s0tzjXiS6nhIn85NyH7YJqqjf5LiPa12RMzk44TzZBOofY9FiAwcj1hUKqFlpbFCf9UbdcbWqPER8urL1MMt9VpVsJofByjScFp79+r6T2ppy2bPFGgXzV8v4NxY1ziou9tnvfetb33qPlWBgo+hveaMKs7iwo6jfpPw+y1oeUxxVX/C35VOf+tTdzNnX0Pga/HsNyKorHhH5Ne5r6q8++MdU8DUfGXpaawuLifcq1wiZ04ZjRlJco0fV0b4OyK+NduA3/RnANcDPkNnXgZO4n9ROwCWfY95jt1/iI/y/YVvHba1m+EhqHELQjVPbxOYnnTKj8nMha/nw9BqIdt9pCiPzDRNDsxYlCDc97lMvxnPqPS2cCVYj3sDK5Qbzu6hA2u20XE7y/W/TRj1f1JPTEPfTexsiuS8MejQRQSdnRdljLsMXyen0TgOnjZXUoF1eAkfgvw/D9F2kTzn8ZKi/G1sCrqKOa1SBI+SLPCdvuOGGObwwkBa+qCKXV9xbc9zHVTxxn+hTP3nPGjjIp8P4dcV0gID4UUZKdO5Lm9lL8B28iD9kUMO3+NCR+pngbawNNLhpHsuq93b/kBuD9jxtakS8ZiHqiXrlJeKCryx7up1i62gR2zk2uhMsFm4o1jnSGVTlG0GbYXX8vtW9SLjvGsScTZQFHR1Ii/GC9/5ti1Mn6fHfFHRU0xwi+9H2NTQYb+YVS8t2/PFw8pahmQLKDI1uOKo2yLL1HASfmMgUbXYPLjxYhfNXBDtY1ZzPyu0CvzbvKSTSAmcqawFCzFtc7bW84AazIfXOCKE8S0zLPMC/rOlkiXGuc5nkz+ZgxmZaavdmXamuOm3s2eY4xOPw5iDAUNKkQdEgpTkWdVUP8ifjzxzKg982KIdPV5Pesgk+Yu82Df+K9LgoC9Pn3O9+91t0zTXXrKT1X8A22BzkplFFvnRVzux9TyHX+bfccsvyo446ai8SxCNvyitky23JSyPZeppqEEM+0oyE9N5l0YuLNM3Bvs2ioavEZkDmszh2aa8QDmN0yOtgHwgafPAd+gu5l04oX2z7DRT/fO4UxjJeh1kr8EBBqlfnzpw2RmnWGzgsYwgep5+mf309c++f/exnyzlGO49V6QFeyYuG+TCy+JHBWARK+FjVbeWwNg7ayo3A0wGDeJWVMsNkyj9Fs6Edwj4sY7q618lP4fjhDbzJNOyKNenV8+NkaR0kdBnwO0BBiFiFiOAc4J2ARJVKshfgVa49EMZWNogfz/DpUhQtYaE8rxJ3F+BbJDpPMiSYcHiwlKvCD2s0v/tYDsFyg+Mx9U7+/4jL8Cm/wxoMV3y3Azle89sz+UbJHtxbbxii9xqep7NyHJZXSb7qFfS4JO8Hxb7PXz6cRgMw4UvL8B24zGf9NwHOJ6cKwxLHBPO+OzDuyEtUCj5r7Dpn4DG/BnSXRgk+jSG2inzrRqNUN3l+s3gQwNcOU35wyaMNiPVJl7rLy9TJVnzQrF7lu/xXNe6tQz3cH3D7yOcp5/D0/IvBM8S/zl+OTB5MvDhDlua7E5Af7yPItyOBxeBTN8b7lpYHP8yvXeX5pXuEfHuQ37oTH9iMX2WUHkdUgZPbFMzjCK5GtshoBzK62xyFjKTFYH75tiFJ9Rfy8H+mTmXkcg1OtYNPB2krjYJyl/fjgI8B+wKpcwCnOCA19aw5nb8k/gzgerMC/i3q7shhBL07WoxXBsPXXkmedwA6u3HKSD2uHOTTlKt4r+8nPLR1WJ3VT3T49QKHGDfeeOM4p19+RNl9AJmQGIWQKyGYIXo6oIDEVPFYlz/yeUUIlk95YFDmWua3TKGAMp9ldHTTmgTzGuzFHV6PMjz6B15BO/+0006bqBz/sx7zXwmcCKQWtDDIhAN85ZyT9DyUNBGZ7gtayzzIphwGR54isaTR50IuKamQS5GtRv45vpRexZfJJnqCz5HxNCD4TOU43LCIc7YDL37xi/8eGl8C6JzVhjflrf7ksoFWG5hWukjFodOGMPLZE+q01arz55JXZOPQNJWtyKZR/mS34PsvzoE/Dqcd8+gnJ+lanSEIp3XEeDa4ng3OlVYujeqQoPP+CrgE+EfAyCg3EL7EKNUG1nK+lG8jYSPW1GF9wVsvD8FYtmEIBJxGGbVVgKlNOOtqMl9QFJDAvBWL50mEZosaz0kRKoT8IWSvkV5eoc3eLuUpFN0yf9Rha6CCi/odruqIDXEUZbikVjI5K7TduWLFio+tXLlyG86qAPMQsnp7EanAY76ZcBR0l3yQ7n1Oe7ovjLLMB80uUpTPlCl5KO59TunKU7n6DG+eovG+DkcRl/KBz39pS/eWK5yV23JU5b0tuyH4TA/MMTf6tQ5Wdz+Oka2lHp1VJ49Q1ktEeZ85q41mOGuSU56vcq8Knf+ZL/FU1FPWW83Pc5IVcghnFV9ud3lZ6zTorOkefG/jWOHvdVbtm5FSqxcGonNaT/nz+T+e49k9eJKH/6H5b4hzAepw4FBA/9BZ7XEtlwL+lP7/iUW2JEN00/l/66CAmpXCqDSu4azRGqC4e1CgwxPD+4CPAxpuEKWRS1wJCM8/CopnFzt8c9t8ElyXH8H7UrBCtqjfDTZP0/zmy8Ahpe8qRr3jRX15nvw+LY6RRx7GWJx4IY5q6yg/oVxuU5Am468GXp5ipoctzknEmwyDunSkGhzkDV5dWPFLCqan/JR1kSLP732Zv7j3ucyjPA3WUThtLp/8XllPgC/hMn9R1jzGOewyvAj4D0D+jM/DFHPOSaZDP+Jk0kuoT+dXXson5FzSRlzCJ17TIdMvbdTQZJ4mkPIhDxtC71P90l/UVy2X8iNz9Zjjq+aL51Qf9drjyfuHgIsAT3k5VDdfW6dlWLvAf2NksXPbs5/97Gs8/E+xDwOfBm4ArEcc0dBye1+oOi2fiHEa1DT4Oafyv3WaOS3zN/P4BoXK8QPj61jZ21LUGq3wc3h+HWCLowDMWwcobRSlmZ5AhaOAunw6DoI33v8tGaFMXZ5G9VfjUPgoCi/xZfXW1Ccu0mBx6MfM1Z7Aws8XqauR0RKdgsYs7+8GbE1vAVRMwgfehLMZPnkujD3lk0ZptXy3oGyUEeXc45OPujqq+NSBuihwSffvgFOBDwINjYt4gwY4xLrFZawYnwK+n8KHcoq6ymuh20RXP3XYR5uRtrWAw88XAoZBT0QxHE7fFTOiWU/rlyLga1fyTrrOwQKdPqEsA5SLQZlVG/2U4E/VabGDhv+to38edthhi1TOUibnN6PoNIeli/b9U5lJi068obIXq4kJOYUa/beOdQRBe3J/AnA/oJzUc18TWCEbjdYEfH6IbQsLA6lVY1gxl20gFe+LxGPMl7fWFO7hwQUaGpp50C+trrRuRRH2Vp4eGkXo2zGE64877rhvcxTPYX4rZ7VYhODdBY8TgT8D/BLHAPzNw6BVXg2+nJYq7+btNTSTW47PunPeedwMuH7xFSCGbdWelaS6kOTDotw+fLbkUejvULaARuRHGee87wwdVuXWjPc6qqcj1Nl2wEVD+VbfhtBlevDAj2cIUGGyfcyknNPqrDqyGXHajr4ukipt8eMo1sVcvqa5lsbwtcjzdTSs2qiLcIMM0zfz4bfDJXIpcDOELcBRdDy/6Gev9mqIuYCXo/fGmSebOCvZy9CpkZcFIG6hD8wXJ2k9NtO6DLI6Z8PhG/n+a3Y0BEbNOPhZG7+UYUXxPu93v/td2qOFkywwDZ111lmuxCmTTozWagw6ZWps0lP2Y2sJP6nxCXxBQ/CcZZ/xbSP5BT4rDxqaIGrKR5P8Q2z+z+E7S3Me+9jHbj/00EMd5vuRtJLnnanDkF8jnpvQ2yy6Kd+NnNZK+u2sQRij2Vkc6Z3AYc+n134dndg4uNyx0Gc38xbQQ0qHpdACWmMXaDQ+F6LezDt7b8Fhl7Md6V89xDA46m90tT4dwmtbZ+MFgfnUnVqqvDKJY47scKWv4dhjjx3FOZcjhOS0UTn4xhHQnQxrnNv0GlR8Dd/sVw/54TnknpyWVnpS3F5pQVeDL/XyvSJsVI7VXF8BtMevCX7tw33qmsj76G3Y4FTyNnxkL9gGb7dq4v+ADruxmdCTDXNLO606bfDZr5416iuujmzHWUM57h7mkwAAB2lJREFUnw7zPO+BsKvNjFwOqDFcDMttk6Ls9AUD29Chs1pA5lV+TOq9bwoY0AbmjGsg0FMoCXBgv4y3plW5XtNwkPRP8BiYC0sJH8Op7TQct8/QWSGpnm+3g4444og7wLdNfAzLp8SNE98hLb3y0aqcslOGwZ9XZaysG5QLPZHUW7j22mv9Y+N7cnzwWP3n86Y2ANau0kKHOb4ebCb4bumsSsQ5LfXHx9GTkPCR8WxvPsX184dDJX5tsqZKpqlTHLi479/rIpVeNt3SQiZmKDjP8XWk9/sKIeVJGOum0Zhtq9ZvPFEfPemsmJcYh7GN+CZOpPf7ygKWLaSQgrilIZ77fVV2yjCvtyrjPG2m99oGU6lqjz5rZ9oMo4U0lQra/7fZDD6YznjLH36Y2GRUlq46oq1Nck4WXjznme5RcspA4VFXiXeGAlgWL18+Z3HChQAPSQw52d8ZTltdLGBYk5oxRhGt9tySHHr5yYdT4nIYZT1/DHziyWTa9RE4y7cL2oT/JIDOkjVl+NJbPjvbZjDm9JbP/yabUeaMUBYVjlp+fhgeB5jSpSV5PdON8HDWQX2H1cQDKbSNjFP0sn3/M6XcWTHkzfxPil8ESPPWnaGAqrM6pMmHOv12oqqzikucO8tpc3wqXVkqU2XrMzLtq9NWnbWBDvvutFWb8S2f0OH/BpvhuO8ob2ItQJaHsA4Rb/nof/rmOs6bp0US91a/Robj0auHG4YYYtgP2xs8DPgJq4ErXSjhfgeHzu9mblY7wCahm+DCCI3BPMuAd0u+wESaf8+YDt2Lk5Mna5i3zGhxJq+TEUP6bnDw4EIUBwGW4bBp2A8966CnujjTDXu2hGWdVR5ciOJtnGXIOPVK/cZXyLSGh1by7oqxInMDHprqsCrvXvBZphUPreQ9A3ylHVZ5yPFZfz90iExns1MxxUv2R/M2zxV0mmmbjOqd44+w4PT1iy+++KlpgMzpjtexavn3ZPJEipNYMznvcq/qZODXV1xxxSLeeBikYhdSOlkxplh9gLmR9773vWnr5uyzz3brxiF5XYi/vGDBZPKMM85wwaTnEHX5kW+/G9yooksvvXQR7/Emp/UjZ43ydBoXdbWi/atf/ep8zmInp+0XPulrVlencu+Ex5z2TnTYSu6d4OuU9k7k3gk+8/yxbQYe5yKnh9EhXsJ0dBW9avig/qFPvhR47+DXv/71XfgO7t5XX331d2j13WKx99Rwo4B7k5ewmnoDY2t65qFB8k34DV6cu6uelpW9hWwXpQURFl6253/jAI6aQL455E+ODfFTbDGJr6Fz1xTMHvI62tHMkGqE/a9d5M8qoG0TNE5P5LM6W93mdbSj2SEcX5XYhdY7LUjNFF8nNHcj/0Z8VmnuRoft5N8In3Hd0NyN/Jvh+yPbjG+yDTPC250R3kPpMJ+Gs/rqY/he+OI90HswsHqQrwDuztcF7uLBc7EXAA4/9WgNNwpym+ZB6S0R76k03krwsW2AsPTWjhlxvLrto0YVoIASn+kuhIm3k5CX7ZRWevuaM9VucUlrJ6FatlNaXTuwrGEm+Dot24segv+c1l502KkeAl8vtPaqB3H+T9gMK+yl/gubCZ/T0O2gHIXpm+8Ghkf4I94Y/r2LiEcBTwbcjNVpbf31ciH925yGoSBDMCJpF3oRvHWGUVjeoMF04gi9CN76w6DEYxBvJ44QskiF+OmExjxvOEKv+DqhMfCF/pRRyMm4diFoNF/opV2ZPK+8hZx2ps1UdfinbDOZs/p2GaSnzwKFz+msGr7n2nVWQ/mOqE28Hm2GzwNPAAz2tg6P09zOCEMo2vsQkPeNgooyv6EbRed15fiMb+UQed52tOU48vswrIhr5RDVvK1oi/oaXXOH6AZfq7yN8ERcN3rJaeuHDtvppRvagp/qtRu9/AnZTHSOaW0Dnv4dOBWwRU0+Ou1JPBF0Sr36k4DO+3DA+abxZi4Bgfsyse+YIpfB9EE05ihleuRF8CmPzyjaL0XU5Ym8ra45PvMx74v/lq2pT3rEaR7L4Dw16a1wVNOkVzzGW2/QkOeTd4y5xCE+8+V5Or1XfuIzdIpPeUpnpzjyfJZzvp5Do7rkz2BZ0/uhQ+uT151pM0Fv6NBrI/7+xGxGX9MnfeHlLcALAIfIxqe5oIrIg88pgesBwFnAScCBgL2vBctQMJueMdTU8/GQyhfOmtIQlEPLqLcs3+1Njs+yRW+W6s3TqrR0iyfya1j2LhHgwVFCwldNy2mJ/D1c675C2QxfTksPeMoiLfRUQ8vO0GFVTy1oKent9qaVnv4EbAYRJHOyZ7UXvQnwSyYXA78FDLlPpofp6NpfvTxWWyywRwE6bU1gFW+uJzOMBPk4e0hredF2IePzdNyPla+tnIGc0bZMjjDHhzIm2YpZBy4P9dfQIDl5uV7vWTUcYXtmMbylxortrw3wNBZxQQMrpo5O+hEGeSHafWrXEPzHuBp8Eceq8oxfOwxi0deiir425jTsTB3+MWwm12Ho60/MZnTWOwsIu819MFQ18P8BXeALb7mLiFEAAAAASUVORK5CYII=;" parent="1" vertex="1">
          <mxGeometry x="360" y="120" width="88.5" height="30" as="geometry" />
        </mxCell>
        <mxCell id="u-Hj_nb6FEhS3LdYL111-9" value="" style="shape=image;verticalLabelPosition=bottom;labelBackgroundColor=#ffffff;verticalAlign=top;aspect=fixed;imageAspect=0;image=data:image/png,iVBORw0KGgoAAAANSUhEUgAAAgAAAAIACAYAAAD0eNT6AABCJElEQVR42u2dCbRlRXnvv6q9z7nn3L5Dj/fSA01DDzRNg0yBl34m9JM2PgdcCQmTUQTEERkEBOHFB0qetKACmidKCCJofIjgANhmQUgcCEOgGWTophkSNTJDDzSjNG8VvS/cvn2Hc099+5zatX+11l4rS+CXtb+vvvrqnl3/+suyZUury5YtrUgTY9mypQNPJeNU4fnzuru7ZonIISJynoj8TERWi8gzIvKSiLw21mOM2epp5L+DBw8ePE/eS9latTpbu84VkYNFpJ/1PkAewQmDN3nypP4kSY4zxtzKYgQPHrzIeJtE5GYROVpEJtM/wuIRnDbxuru7trPWnmeMeY7FAx48eCXgPSciX+7q6ppN/6D5l463cOF899STJDnBGLOexQMePHgl5G1MkuTMuXO376J/0PxLwavXa+7ZyVpzB4sHPHjw4JmVxph59A+af9S8NE3dc4AxZh2LBzx48OC9wVsnIvvTP1rHIzgt5CVJ4p4jjTGvUOzw4MGDtxXvDyLyEfpH63gEp3XN/6PGmE0UOzx48OCZ0dQCH6J/tIZHcFr3s/8fKHZ48ODBG5P3ynCfA+hH+jyCk/+Bv4V884cHDx68cfHWi8gC+lG+PIKTE2/evB3c08lpf3jw4MFrinebiKT0oxbyCI4eL0mSUyl2ePDgwWua9yn6Ec2/cDx3w9/A7X4UOzx48OA19azv7u7aln5E8y8UL7vel2KHBw8ePA9ektgv0Y9o/oUy9uFuf3jw4MFT4W2YPHlSH/2I5l8IXubqR7HDgwcPngIvSZJP0o9y4BEcfZ4x5t+1Jr+15p7MNGhnEZlAPuDBgxcqb/r0/km1WsdbROQ4Efm14mbiJvKRA4/g6PK6u7tmZbdZ+Tb/l5IkOWaPPd7SQT7gwYNXQF4iIu4v95cUfklwa+o08qHMIzjqvEM0mn+1Wvkz8gEPHrwIePs1sglo4DPCQeRDmUdw1Hnn+f7s5f7yJx/w4MGLiHeMwhmCr5APZR7BUeet8P3mv3jxohr5gAcPXkQ89zngHs8DhNeSD2UewVHnPeh52vUE8gEPHrwIeZ/yVA88QD7y4REcPd5TPgdejDGLyAc8ePAi5C32lA4+ST5o/qHzXvI87dpFPuDBgxchr9vz3oAXyQfNP3Se76UZ5AMePHixNhvfS4PIB80/aJ6v1IV8wIMHLzqeMUYUbgwkH0o8gpMPz1fqQj7gwYMXJU/humDyocgjOPo837uyyQc8ePCi5Pl6BZAPXR7B0ef5GmWQD3jw4EXJ8zUKIh+6PIKjz/N1ySIf8ODBi5Ln6xJIPnR5BEef52uRST7gwYMXK8/LJZX45cwjON7SCl9/bPIBDx68WHleRmnEj+aPzpV8wIMHr5g8L6M04kfzR+dKPuDBg1dM3ms+XinEj+aPzpV8wIMHr5i813y8UogfzR+dK/mABw9eMXmveV6XTj40eQQHnSs8ePDgtYiHV0pIPIKDzhUePHjwWsTDKyUkHsFR56FzhQcPHrxxbgDwSmkDj+Co89C5woMHD944NgB4pbSJR3DUeehc4cGDB6/BDQBeKW3kERx1HjpXePDgwWtgA4BXSlCX2BEcBR46V3jw4MEbYwOAVwrNH50rOld48ODhlYJXCs0fnSvxgwcPXsTNBq8Umj86V3Su8ODBwysFr5R28QhOPjx0rvDgwYM3DA+vlLB4BEefh84VHjx48PBKCZ5HcPR56FzhwYMHD6+U4HkER5+HzhUePHjw8EoJnkdw0LnCgwcPHl4p8AgOOld48ODBwyuF5k9wmtoAoHOFBw8ePLxSaP7oXNG5woMHD14TGwC8Umj+6FzJBzx48PBKwSuF5o/OlXzAgwevoDy8UkLiERx0rvDgwYPXIh5eKSHxCA46V3jw4MFrEQ+vlJB4BEedh84VHjx48Ma5AcArpQ08gqPOQ+cKDx48eOPYAOCV0iYewVHnoXOFBw8evAY3AHiltJFHcNR56FzhwYMHr4ENAF4pQV1iR3AUeOhc4cGDB2+MDQBeKTR/dK7oXOHBg4dXCl4pNH90rsQvOJ4VkZ1F5HAROV9ErhGRe0TkKRHZoPBN8zUFaVSZeRuyXLicXJ3l6IMissjljvmMVwr5oPm3kofOteC8SiWdICKHiMhlIvIkzbqwvCestd9J0/Svp0/vn0R9tJeHV0pYPIKTDw+da0F5lUplmYhcOtJf9jTXQvM2WGtdbv+E+mgfD6+UsHgER5+HzrVAvEWLduxM0/RIY8wdNNfS8G4XkfeLSEp9tJaHV0pYPIKjz0PnWgDeXnvtXkvT9FBjzAM019LyHhGRj4hIQn3glVJGHsHR56FzDZxXrVb3s9b8mmYIL3vuHPppgHrDK6UMPIKDzrUUvJ6ebvfMtNZ+zxiziWYIb8izSUS+IyJ91BteKaXlERx0rrHx0jR1zyHGmCdohvDGeJ5xnwWoN7xSaP4Ep6kNADrXMHhJkrin11p7Bc0Q3nh41trLp02bOpV6U+fhlULzj5OHzjUcXpaLPY0xa2iG8Jrk/Ue1Wn0r9abKwyuF5h8vD51rML/EHGWMeYlmCM+T96KIHEG9qfHwSqH5x8tD59r25u8kXctpXvCUed/k3gAVHl4pIfEIDjrXiJq/u8J3Bc0LXk485zXQSb158fBKCYlHcNC5RtL8J4vIjTQveDnzbhGRqax/eKVEwSM46jx0rq1v/v0ich/NC16LeM55sI/1D6+UwvMIjjoPnWtrm/9EEVlJ84LXYt5dIjKF9Q+vlELzCI46D51ra5v/bS1sDveLyJdE5D0iMk9EeshH23k9WS72F5Evi8iqFm4mbnX3TJAPvFIKyyM46jx0rq1p/t0i8m8taP6Picj/EpEdyEdheHNF5G9E5PEW/JJwY39/32Ty0dwGAK+UoKTTBEeBh841/8nqTmL/a87Nf3WSJB+vVqs18lFYXl1EPiYia/L8jGCt/ZdZs2b0ko/xbQDwSqH5o3NF5zreYUXkxzk2/+eSJDl54cL5deZz8XmdnXX3VJIkOdUYszGvX4qstT+cM2e2IR+NbQDwSqH5o3NF59rMODPHv+SumTBhwjzmc5y87u6uOdbaq3I8I3IG+Rh7A4BXCs0fnSs612bGXw228lVs/s+laXo487k0vMNEZGMO6gFnKXwA+Rieh1dKWDyCkw8PnWs+xj67ukadQ/N/oFar7cF8Lh1vobs7Igfp4AYR2YV8DM/DKyUsHsHR56FzVeRZa90z1RjzcA6Wrz/E8rXUvF4R+VEO9wY85O4IIB94pYTOIzj6PHSuSrxp06a4x1pr/jmH5v/VJUv26WA+l57nDpX+XQ73BlyXsckHXinB8giOPg+dqxIvSRL3fEa7+SeJPZv5DG/IOCWHS4NOJB94pYTMIzjoXIPk1Wod7nHf/V9QbP6bkiQ5hfkMb4RxbHaQT+vSoBfdeQDygVdKYXgEB51ru3nbb7+deyZYa+7Q/cs/OY75DG+McZzypUG3uXsIyAdeKTR/dK7oXBvkJUlylnLz/wLzGd5YvOzQ6Rc1PztZa88kH8N/IsUrheYfDQ+dqw6vo6PjvxljXlY88PddDvzBa5Tn5oq19hJFqekrHR3Vt5KP8W8A8Eqh+aNzLVH85syZ3e3u4Vds/tcuWrRjJ/MZ3nh4CxbMc5+gVmjdGGitWeU+a5EPvFJo/hHz0Ln68ZIkOU2v+Zt7p0/vn8R8htcML03TrvFeFjRG8/o0+cArJSgewUHnGgqvt7dnljFmndLPrhvq9dpbmM/wPHk7ish6pRsDHWd6yfOBV0pIPIKDzjUUnrX221pGLWmaHsF8hqfEO0TxuuC/L3k+8EoJiUdw1HnoXJvgdXR07GOMeVXJ1e8C5jM8Zd4FStcFuzm+V4nzgVdKSDyCo85D5zpOnjt1bYy5Uaf5m7vcQULmMzxlXk1E7lS6LvgXzuOqpPnAKyUkHsFR56FzHScvTZMPKJ22fsVJCAN431kicsXAt+MxFjf371wpIvOpt+B5u4nIy0rXBR9c0nzglRISj+Co89C5joM3b94OnZl7mrfUKkns8kCa/9NNLG7uv5lJvQXPW67kFfCgiCQljB9eKeFeYkdwFHjoXMfH+5BG8zfGrJo1a0Z3AO97hcfidjn1FjyvY0AaqHDp10GCVwpeKTR/dK5l1Lm6O9Kb/et/SOxerVYrSwMppvUei9ta6i1snjGvP3/s5pzCpV/uTIHBKwWvFJo/Otcy6lyP1LhkxVp7UUDFhBfE2LwtzkiMkd/11tqrjDHzQ3rfwVcFe0pX34VXCvVB80fnWjadqzsFfa/CDWsbrLXTQ3hfvCAabv5PN1Efo56RaPX7dnd3bWeMeU7h3oqb8UqhPtrBIzj58NC5NsZ7j9L1qmeE9L54QYw5rvCoj8tDel9r7Rc01CvVavVteKVQH+3gERx9HjrXxng3KDT/R0WkK6T3xQtizLHeoz7WhvS+aZr0iMjj/kZB9p/wSqE+2sEjOPo8dK5j83YSkU0KByY/Gtr74gVRuvo4WuOXLGPMojKsp9RHWDyCo89D5zo272sKzX+NiKShvS9eEKWrj3EpWUZ533PLsJ5SH2HxCA4611bz3MU/zyioJT4a6PviBVG++jhaYT4/m9VG7Osp9REyj+Cgc82Z9yGFxdJ9d60H+r54QZSvPlzjflLhAPAHS7CeUh80f3SuJda5/lxBKvnZgN8XL4hy1sfnFA4A/3MJ1lPqg+YfJw+d65i82Zkdqk/z3ygiUwN+X7wgylkf00Tkec8zDq42to18PaU+aP7x8tC5jjpOU/iZ9GuBvy9eEOWtjwsUzjicEvl6Sn3Q/OPloXMdddyt8DPposDfFy+I8tbHLgpnHO6KfD2lPkLiERx0ri3izVdo/rcW4H3xgihpfWRjpcJnjgWCVwpeKa3gERx0ri3ifUbhEphjCvC+eEGUtD6SJHHPiQqfOU7CK6X0Ximt4REcdR461+HHLZ7N/+XsoFXo74sXRInro7e3Z6Yx5mXPXzpuxCul9F4preERHHUeOtetR//Qq3+b+Jn0RwV5X7wgSl4f1tqfeP7S8Wpvb890vFJK7ZXSGh7BUeehc916vF/hdPQBBXlfvCBKXh9pmh7k+0tHmqbvxwuitF4preMRHHUeOtetx6Wezf/5oTf/cdc99RHq+1ar1Vp2X0XTmx1r7SV4QZTWK6XlPIKjx0PnuuUwmW2vjzTqmgK9L14Q1Icb13pudv5ryZK9qxGuB9QHzT9qHjrXLcfOCte/Hl2g98ULgvqQTLHiaxG8Y4TrAfVB84+ah851y/ERBV30XOGue+qjWPWxg8Jm58gI1wPqg+YfNQ+da8az1rrnMs/mv0q46576KGZ9POD5vv8Q03pAfYTFIzj58NC5bnn3+4Oel6Kcy1331EdB6+N8z/ddHeF6QH0ExCM4+jx0rhlv0qSJ2/je/S4i7+aue+qjoPWxv+f7urszJsW0nlIfYfEIjj4PnWvGq1Qq/9P37ndrbR933VMfBa2PfoX3XRrTekp9hMUjOPo8dK4ZK0mSUzxvRHuEu+6pj4LXx2883/eEmNZT6iMsHsFB55obz1r7PZ9it9b+gLvuqY+C18dVnu97WWTrKfURMo/goHNV5N3pU+xJkpzGXffUR5HrQ0RO83zf2yNbT6kPmn/Uukp0rsuWVubMme1uAHzOp9ir1co7uOue+ihqfWTj7Z7vuyG7TRMviMjrg+ZfcB461y14szyLfdPkyZP6uOue+ihqfUyc2OuefjeXPU+/z8ALIv76oPlHwEPn+sbYz7PYf89d99RHDPVhjHnM8/T7vnhBlKM+aP4F56FzfWMc5VnsNxd0vuAFQX1swbPW3uJ5+v1IvCDKUR8t5xEcdK458T7nWezfK+h8wQuC+hiqhvm+z+n3JLGn4wVRjvpoOY/goHPNiXeRZ7GfVdD5ghcE9TGU90Wf0+/W2gvxgihHfbScR3DUeehcN48VnsX+sYLOF7wgqI+hvE/4HIi11l6LF0Rp6qO1PIKjzkPnunms9Cz2dxZ0vuAFQX0M5b3L50CstWYlXhClqY/W8giOOg+d6+bxiGexLyrofFnnsbitLUF9rPOoj7UFrY+dPQ/EPhzReopXSkg8gqPOQ+c6ykI/jmLvL+h8udJjcbuiBPVxZfN/CdsrC1of0zwPxD4b0XqKV0q4l1YRHAUeOleRJLMy9Sn27oLOlwUi8lQT7/u0iMwrQX28EZ9x1sfT9XptYUHro+p5IPZVEbGRrKd4pdD8o+ahc93sYe6700+LOF+ste6Z6aRfxph1Dbzvuuwv/3klqreZInL5aJ8DBsVtnfvLv8DNf2Bs9DwTMzGSZoNXCs0/ah46V5FtPJv/i8w/eJHxHvU8E7NNJM0GrxSaf9Q8dK4isz13+k8z/+BFxvuN55mYbYseP7xSwuIRnHx4pde5ishcz53+b5l/8CLjPej5WWxuDPHDKyUsHsHR55Va55rt8hd67vRXM//gRca7z/Oz2E4xxA+vlLB4BEefV2qda61Wc89iz53+auYfvMh493l+FtsphvjhlRIWj+Do80qvc+3s7FzoudP/LfMPXky8gU8AHr+MzY0hfnilhMUjOOhc1XldXRPmeu70n2H+wYuo+bvxG8/PYttGEj+8UkLmERx0rr68np7ubT13+i8y/+DFwsvOxTzq+VlsG8EL4jXmH80fnWvg8Zs0aWKf705/0aIdO5l/8GLhGWM2en4Wm4hXSlReKTT/SHf6pde5Tps2xWbXlzZd7H1906Yw/+DFwJs7d/suz+b/+lXAeKVE5ZVC8490p4/OdfNY61Ps7jMC8w9eDLze3p5ZnIkZ/wYgYq8Umn+sPHSub4xHfIq9VuvYlfkHLwZerVbbzfNMzMN4pUTllRIOj+Cgc82Jt9Kz2N/J/IMXAy9N0/d6nolZiVdKVF4p4fAIDjrXnHjXehb7x5h/8CLhfcLnQKy19hq8UqLySgmHR3DUeehcN48LPYv9LOYfvEh4X/Q5EGut/SZeKfF4pQTFIzjqPHSum8fpnsX+PeYfvEh4l/sciE2S5HS8UuLwSgmOR3DUeehcN4+jPIv9JuYfvEh4N/sciE2S5KiI4ldqr5TgeARHnYfOdfN4m2ex/575By8S3mOeB2L3jSh+pfdKCfgSO4KjwEPnunnM8iz2TSIyifmnxusSkYNF5BsicouIPGGMeSl7nrDW3uK+NYvIQSIygfip8SZnc9nnQOyMiOJXeq8Umn/cPHSum4cRkQ2exf525p83b46IfH1wLhrIx/rsv9mO+Hnz3uG5HmzIaimWZlN6rxSaf9w8dK5vjjs8i/1U5l/TPPfvnOGMlTx+iXkhO8yZsh40zTvNcz1YGVmzKb1XCs0/bh461zfHZZ7FfiXzryme+3RyvcKBq4HnuqGfY8hHw7wfeq4H344lfnilhMUjOPnw0LkuWypJkrjnZM9i/0/m37h5c0VklWLzH3gccwfyMW7e7zzXg+Njih9eKWHxCI4+D51rxqtWK3/m643gfNCZfw3zpo/kwaDwl5d77heRXvLRMG8bhfVg35jih1dKWDyCo89D55rxJk+e1O/rjSAi72H+NcRzFsw35Nj8B56fLV68qEY+Ghrv9cyHUw9MjCl+eKWExSM4+jx0rlt6I6zxuR7ZWvtV5l9D4+QWNP+Bi2k+TT4aGl/1zMf9Ea4HeKUExCM46Fzz5l3ieT3yauZfQz/9b2hF88+e9b29PTPJx5hjjWc+LoowfnilhMwjOOhclXkf9r0eubOzcyHzb9SxvIXNf8CgZjn5GHXMV8jHERHGD68Umn/Uukp0rlvydvJtNkmSHMf8G3G4f/fJVjb/jPdE9v+bfAw/jlXIx/wI44dXCs0/Th4612F5JrvX36fZXMv8G3G8qw3Nf+B5B/kYcazwzMfvBt8AiFdKdF4pNP8Yeehchx2Xejab50Wkzvwbdny5Tc3fPWeTj2GHm6sbPfNxcaTxwyuF5h8vD53rsOOvFZrNXzL/hh0/b1Pzfy2THZKPrceBCvk4WPBKidkrJQwewUHn2gJen4i86tlsfsz8G3b8rk3N3z2/JR9b8qy17rnGMx+uVqbilRK3V0oQPIKDzrVFvJs8m80rItLP/HuTl505eb5Nzd89z5GPN3k9Pd3umWmMedkzH7/EKyVur5RgeARHnYfOdfhxsoJU7Vjm31ZnTja1qfkP3FRHPgbxkiQ5SSEfJ+CVErdXSjA8gqPOQ+c6/JincFr9Nuaf7pkT7q3Q5Vlr7vLNhzFmB7xS4vdKCYJHcNR56FxHHncrHFhbzPzTO3PCvRV6vFqtY0+FfNyJV0o5vFKC4BEcdR4615HHqQoH1r7O/NM7c8K9FXo8a+1FvvlIEnsaXinl8UoJbH0mOAo8dK7D8CZM6HTPXGPMq54/W7/gDgMy/3TOnHBvhQ7PeSO4A5me+Xi1q2vCDnillMorheaPzrU8Oldr7c8VfiY9g/mnc+aEeyt0eNbaL/huxqy11+OVwpkTmj8612jjl6bpUQo/Wz8xY8b0icy/5jYAmvcGsB4srfb3900Ukad8N2Npmh6BVwpnTmj+xeahcx2FN2PG9B4RecZ3sUyS5JPMv/FvALQvDWI9eJ13jMIvMc9mm1q8Ujhz0hIewcmHh851bN75Cn+5Prhw4fw68699zR9/9qWVzs66Yz7sO5+ttefhlcKZk1bzCI4+D51rYxbBmxSa1yeYf+1r/vizvz6OVdjMbqrVajuXIX6cOQmLR3D0eehcG+Ndr9C8HhOR7pLPv7Y1f/zZpVdEnvD9DGOtWVGW+HHmJCwewdHnoXNtjPdOpeb1+ZLPv7Y1f/zZ5SyNMxjGyFvLEj/OnITFIzjoXNvJu1OheTnt9bYlnn9ta/4l92efKSIbFeL3i5LFjzMnIfMIDjrXFvIOV2peF5V4/rWz+ZfZn/0Spfi9s2Tx48wJzR+dKzrX14f79x5SaF7OP/1PSzr/1rWx+a8t6Xqw73gOsY4SP/cLmClZ/DhzQvOPk4fOtSnekUrNa7WI1EsYvyvb1Pzdc0UJ1wM3x9Yoxe/AEsaPMyc0/3h56FzHPRIReUCpeS0vYfwWDNxC1+Lm/3Rm8Vy29eAcpfityeZ+2eLHmROaf7w8dK5NjYOVmtcrIrJXmeJnrXXPTGvt940x61rQ/Ndlf/mXsfn/kYj8QUm98lclXU85cxISj+Cgc20nb8mSvd3jzFR+pdS87po1a0Y38xmeMq8mIncrNf+flzgfeKWExCM46FxD4NVqHXsPWAUruKpdyHyGp8y7UKn5uwOre5Y4H3ilhMQjOOo8dK5N8qy1F2v9bJ2m6YeYz/CUeO9TvHHxmyXPB14pIfEIjjoPnWuTPGttXyYt0/hm/ZwxZmfmMzxP3uJGLvxpsHm58xPblDwfeKWExCM46jx0rn68kxUPrN0nIl3MZ3hN8pzPxCrF65ZPJB94pQTFIzjqPHSufrwOEblf0eVuRXbhEPMZ3nh47p70f1Js/vdmzLLnA6+UcNVYBEeBh87Vn7eHiLysuPh+d7Qb15jP8IYM08hVv+OYf06eujf52HJ9xCuF5o/OFZ3rSOPzykY3ZzGf4TXIO0fZZfF08rHl+ohXCs0fnSs619GG+3duVza6OZ75DG8M3onKzf+2kT5B4ZWCVwrNH50rOteRx06Z3a/WXfebskOGzGd4w41TlJv/i5mKgHzglRIcj+Dkw0Pnqss7KQejm+XMZ3hDxhnKzd89nyIfeKWEzCM4+jx0rro/U1kRuV7b6MZa+/W99tq9xnwuPc/NrwtyaP7XZWzygVdKsDyCo89D56rI6+3tdc82xpiHtY1urLU/mTJl8jTmc2l5k0Tk6hya/0MiMoV84JUSOo/g6PPQuebAq9druw643Sm73K0xxuzKfC4dbzcReTCH5r9BRHYhH3ilFIFHcNC5FoaXpumB2UE+bYtbd9XrYczn0vAOH3q4VKn5u7n5F+QDr5TC8ggOOtfAeWcoN//BzzUiMof5HC1vexG5VnG+DH0+Sz7wSqH5l7f5CzrX3Hnulrarcmj+g38NOGU47Tb5KCzP/dR5WiN/9XvU7w+G3jZJPvBKofmjc0Xnqs+ri8gNOS7mr2Xfhz+e/f8iH8XkdYrI0SLycE6bxYHnehGpkQ+8Umj+6FzRubaG51z+fpVT8x/8PO5+2jXGzCMfheHNy67ffSLHX4oGnl+IyATygVcKzR8eOtfW8npF5N9zbP5DeauttedVKukB9XptUZIkveSjvbypU6dMq9frO6dpeoCInCsiD+R4RmToc4uI9JAPvFIKyyM46FwLzps41DMgp+YPD97g504Rmcz6h1dKoXkEB51rBLw+EbmH5gWvRby7RWQa6x9eKYXnERx1HjrXFvOSJHHPJGPMr2he8HLm3SwiU1n/8EqJgkdw1HnoXNvEmzFj+kRr7TU0L3g58X40oAqh3vBKiYJHcNR56FzbyNt1153r1tqzaV7wlHnnux+bqDe8UqLiERx1HjrXMHhHZH7sNC94PrwXhrsmmnrDKyUmHsHR46FzDYe3h4isoRnCa5K3WkR2p97wSqH5E2x0rsXkOZ32P9IM4Y2Td5mIdFNveKXQ/Ak2Otfi8/YXkd/TDOGNwXM3P/4l9YZXCs2fYKNzjYvXl/1lt4lmCG8YK99Lh+r7qTe8UmLlEZx8eOhcw9/5vlVEVtIM4WXPbSKyhPrIn4dXSlg8gqPPQ+caOG/Jkr3dU03T9FBjzCqaYWl592cn/BPqozU8vFLC4hEcfR461wLxFi3asTNNk8NGMhWiuUbJcyY+h47W+KkPvFLKwCM4+jx0rsXl/XcR+ZaIrKe5RsdbJyL/ICJ/TH20j4dXSlg8goPOFd7Wo1NEDhKRS0TkMZprYXmPZhu6A4de4Ut9tI2HV0rIPIKDzhXeFsOIyEIR+UDmN/8TEfm1MeZxY8x6mnXbee7XGpeLX1trr7bWnpem6RG1Wm3nOXNmG+ZzcDy8Umj+6FzRucKDB6+EPLxSaP5x8tC5woMHDx5eKTR/dK7oXOHBgwevyQ0AXik0f3Su5AMePHh4peCVkgeP4KBzhQcPHrwW8fBKCYlHcNC5woMHD16LeHilhMQjOOo8dK7w4MGDN84NAF4pbeARHHUeOld48ODBG8cGAK+UNvEIjjoPnSs8ePDgNbgBwCuljTyCo85D5woPHjx4DWwA8EoJ6hI7gqPAQ+cKDx48eGNsAPBKofmjc0XnCg8ePLxS8Eqh+aNzJX7w4MGLuNnglULzR+eKzhUePHh4peCV0i4ewcmHh84VHjx48Ibh4ZUSFo/g6PPQucKDBw8eXinB8wiOPg+dKzx48ODhlRI8j+Do89C5woMHDx5eKcHzCA46V3jw4MHDKwUewUHnCg8ePHh4pdD8CU5TGwB0rvDgwYOHVwrNH50rOld48ODBa2IDgFcKzR+dK/mABw8eXil4pdD80bmSD3jw4BWUh1dKSDyCg84VHjx48FrEwyslJB7BQecKDx48eC3i4ZUSEo/gqPPQucKDBw/eODcAeKW0gUdw1HnoXOHBgwdvHBsAvFLaxCM46jx0rvDgwYPX4AYAr5Q28giOOg+dKzx48OA1sAHAKyWoS+wIjgIPnSs8ePDgjbEBwCuF5o/OFZ0rPHjw8ErBK4Xmj86V+MGDBy/iZoNXCs0fnSs6V3jw4OGVgldKu3gEJx8eOld48ODBG4aHV0pYPIKjz0PnCg8ePHh4pQTPIzj6PHSu8ODBg4dXSvA8gqPPQ+cKDx48eHilBM8jOOhc4cGDBw+vFHgEB50rPHjw4OGVQvMnOE1tANC5woMHDx5eKTR/dK7oXOHBgweviQ0AXik0f3Su5AMePHh4peCVQvNH50o+4MGDV1AeXikh8QgOOld48ODBaxEPr5SQeAQHnSs8ePDgtYiHV0pIPIKjzkPnCg8ePHjj3ADgldIGHsFR56FzhQcPHrxxbADwSmkTj+Co89C5RsTba6/da7Vax1tE5HAROV9ErhGRe0TkKRHZoPBN8zVfaVTJeRuyXLicXJ3l6IMiskhELPMZrxTyMTqE4Ojy0LkWnDd9ev+kNE3fb639rjHmSZp1YXlPiMilInKwiEygPvBKIR8Kg2Cjc42NV6lU3LPMWvsdY8wGmmt0vA3W2kur1er/oD7aysMrheYfNQ+da7Emfyoihxlj7qC5loNnrVmZpskHu7ompNRHy+sNrxSaf9Q8dK7F4LnvwweKyAM019LyHhGRj4hIQn20rNnglULzR+eKzrWtvH1F5G6aIbzsuVNE/oT6yJeHV0pYPIKTDw+da7i8PhH5rohsohnCG/K4OfGdbI5Qb3illIJHcPR56FzD5B2YnQqnGcIb7Xkm+yxAveGVEj2P4Ojz0LmGxesVke/TDOGN8/meiPRQb3ilxMwjOPo8dK7h8PYUkTU0Q3hNPv9RrVbfSr3p8fBKCYtHcNC5xso7SkReohnC8+S9mKbpUdSbGg+vlJB5BAeda8F5TtK1nOYFT5Nnrf177g1Q4eGVQvNH54rONRfeBBFZQfOClxPPeQ10Um9ePLxSaP5x8tC5tpU3WURupHnBy5l3i4hMpd6a5uGVQvOPl4fOtS28fhG5j+YFr0W8e4a7L4D1D68Umj86V3SureVNFJGVNC94LebdJSJTWP/wSik0j+Cgcy1487+tVc3BWrMqSexX0jT9c2PMPKcTJx/t5U2bNnVqvV5bKCL7i8iXRWRVCzcTt2b3TJAPvFKKySM46FwLyusWkX9rQfN/LEmS/93Z2bkj+SgMb66I/I2IPN6CXxJ+JSJd5AOvlELyCI46D51r/jx3Evtfc27+q5Mk+fjs2bN6yEdheXUR+djQy6BymC83VKuVOvnAK6VwPIKjzkPnmi/P2fj+OMfF/DkROXHhwvl15nM0PPfvniwiG/P6pcha+8MlS/bpIB/NbQDwSmkTj+Co89C55ss7M8fmf7UxZjvmc7T3dMwUkR/kdUYkSZIzycf4NwB4pbSRR3DUeehc8+P91YCVr3Lzd3/1v5/5XA5emqZHGmM25qAe2JSm6YHko/ENAF4pQV1iR3AUeOhc8+HtmjVq7eb/gIjswnwuF69er+1ijLkvB+ngBjefyMfYGwC8Umj+6FzRuTYy3M1rD+fQ/K/E8rW8vCRJnITvRzncG/DQcHcEkI8310e8Umj+6FzRuTYy3KG/63No/ueJiGE+l57n5tff5XBvwHUZm3wMWR/xSqH5o3NF59ro+HQOzX858xnekHFKDpcGnUg+3uThlRIWj+Dkw0PnqsdbJCIvKDZ/d4DwJOYzvBHGsUMPmXpuPl8c7jwAXil4pYTCIzj6PHSuOrzq4Dv+lf7y/yTzGd4Y4zjlS4Nuy+4hIB94pQTHIzj6PHSuOry/VW7+ZzKf4TU4zlL+7PQ58oFXSog8gqPPQ+fqz9tTRF5WbP6XceAP3jiGEZGLFeffKyKyD/nAKyU0HsFB5xoar8Pdw6+4+F4jIinzGV6jo7Oz7p6KtWaF4o2B92+//XYTyAdeKUHzCA461zbH7xTF5n+PiExgPsNrhtff3zfZWnO/1o2BSZJ8hnzglULzR+eKznX40S8i65Sav7uRbRHzGZ4Pr16vLzbGrFe6MXB9T0/3bLxS8Eqh+UfIQ+fqvXn6lqJRyweYz/CUeIdoXRdsrf2HkucDrxSaf7w8dK7jH9nGaQ9jzKtKzf//Mp/hKfMuULou+FUR2avE+cArheYfLw+d6/jGnDmz3WOMMTcqNf87Ozo6OpjP8JR5NTe3lK4L/kWmNChjPvBKCYlHcNC5tpOXpol7PqDU/F8xxuwZwPvOEpErRGR9A4vbemvtVcaY+dRb8LzdBuSpCjd+HlzSfOCVEhKP4KBzbRdv3rwd3NNpjHlISWr1fwJp/k83sbi5/2Ym9RY8b7mSV8CDIpKUMH54pYTEIzjqPHSu4+ClafIRpea/atasGd0BvO8VHovb5dRb8Dx3T8V9StcFH1TC+OGVEhKP4Kjz0Lk2yFuwYN6EwX/9ezT/V6vVytJA3ne9x+K2lnorBO+Ps8N8vpd+3Tn0LABeKXiltJRHcNR56Fwb5KVp+mGNS1astRfhBVGo+TLqGYkhz+tnJDo764sCe9+LlbwC3lWy9ZT6CIlHcNR56Fwb4C1Zsk+HteY+hRvWNmSXq+AFUZzm/3QT9fF0d3fXnIDurZghIs8p3Ftxk+CVQn20fz4THCUeOtcGeJVK5c+Vrlc9Ey+IQs2XKzwu0fl+KO9rrXXPF5TUK3+KVwr1QfNH51oanau15l8Urld91N3XjhdEoebLeo/6WBvS+06bNnWqMeZxhc9YP8Mrhfqg+aNzLYXOtVbr2EVENvkemEzT5BN4QVAf7XzfJEmO1fglq16vvQWvFOqD5o/OtQzx+5rC3eprFi3asRMvCOqjne/r7rEQkYd857O19ny8UqiPVvIITj48dK6j8CqVilswn/FVS2R//eMFQX2E8L5HKxgFPTt9en9v7Osp9REWj+Do89C5js77kMJi+fiMGdN7QnxfvCBKWR9uU/ukwgHgD8a+nlIfYfEIjj4PnevovJ/7SiWTxJ4e6vviBVHa+vicwgHgf459PaU+wuIRHH0eOteRebOH3qDWxGK50Vo7NdT3xQuitPUxTUSe9zzj4Gpj25jXU+ojLB7BQefaSt5pCj+Tfi3w98ULorz1cYHCGYdTIl9PqY+QeQQHnWuOvLsVfiZdFPj74gVR3vrYReGMw12Rr6fUB80fnWsJda7zFZr/rQV4X7wgyl0fKxU+cyyIeD2lPmj+cfLQuY7K+4zCJTDHFOB98YIod30cr/CZ46SI11Pqg+YfLw+d64jjFs/m/3J20Cr098ULotz10ZfNVZ9fOm6MeD2lPmj+8fLQuQ47+se6+reBxfJHBXlfvCBKXB/Z+LHnLx1ODTBV8EoprVdKy3gEB51rC3jvVzgdfUBB3hcviBLXR5qm7jlI4ZeOQ/CCKKdXSkt5BAedawt4l3o2f6evrhfkffGCKHl9zJ49q8fdV+G52bkYL4jSeqW0jkdw1HnoXLccRkQe9ZRGXVOg98ULgvqoWmt/6rnZ+a8lS/au4gVRuvpoLY/gqPPQuW45dla4/vXoAr0vXhDUh7MJPt7fIri+GC+I0tVHa3kER52HznXL8REFXfTcAr0vXhDUh1M77OC72UnT9MN4QZSuPlrLIzjqPHSuW45vezb/VQV7X7wgqI+B8YDP+1prv4UXROnqoy08gqPHQ+e65XjQ81KUcwv2vnhBUB8D43zP910d4XpAfdD8o+ahc31zTFG4+/3dBSsmvCCoj4Gxv+f7urszJkXWbKgPmn/UPHSug5AKd7/3FayY8IKgPgZGv8L7Lo2s2VAfNP+oeehc3xwneRb7I0WaL3hBUB/DjN94vu8Jsayn1EdYPIKTDw+d67KlYq11z/c8i/0K4a576qPY9XGV5/teFtN6Sn2ExSM4+jx0rhnPWnOXZ7Gfwl331EfB6+M0z/e9Pab1lPoIi0dw9HnoXJctrSxZsk+HMeY5z+tQ9+Oue+qj4PXxds/33ZDdphnFekp9hMUjOPo8dK7Llla7urq29yz2TUmSTOKue+qj4PUxebATZpPfwGfEsp5SH2HxCA4611x41WrlHZ7F/nvuuqc+YqgPEXnM8/T7vhGtp9RHyDyCg85Vg5ckyUc9i/1m7rqnPopeH9m42fP0+5ERrafUB80/al0lOtfNvM/5FLu19nLuuqc+il4fmRrm+56n3z8reEFEXx80/4Lz0LluwbvIp9iTxJ7NXffURwz1kST2HM/T79/ACyL++qD5R8BD5/rGWOFT7GmaHM1d99RHDPWRJMkxngdir8ELohz1QfMvOA+d6xtjpU+xVyrp/gWdL3hBUB9b8CqVyns9D8TejhdEOeqj5TyCg841J94jPsVujFlU0PmyzmNxW1uC+ljnUR9ri1gftVrHWzwPxD6MF0R8XilB8AgOOteceOs8i72/oPPlSo/F7YrY68Nae5VHfVxRxPqw1k7zPP3+LF4QcXmlBMMjOOo8dK4iyeDLT5os9u6CzpcFIvJUE+/7tIjMi70+jDEjxmeM5+l6vbawoPVR9Tz9/upee+1ewwsiHq+UYHgER52HznWzh7nvTj8t8HyZKSKXD/4VZJT3XZf95T+vRPW2VXxGeV6PT4Gb/8DY6HMmZvLkSdMiWU/xSgmJR3DUeehcRbbxbP4vMv/gRcZ71OdMjLV2m0jih1dKSDyCo85D5yoy23On/zTzD15kvN94nonZNpL44ZUS7iVdBEeBh85VZK7nTv+3zD94kfEe9PwsNjeS+OGVQvOPmofOVWSh505/NfMPXmS8+zw/i+0USbPBK4XmHzUPneuQDUATxb6a+QcvMt59np/Fdoqk2eCVQvOPmofOddAngCaL/bfMP3iR8R70/Cw2t+jxwyslLB7ByYdXep3rwCFAj2J/hvkHLzLebzw/i20bQ/zwSgmLR3D0eaXWuWb2p9t47vRfZP7Bi4z3qOdnsW1iiB9eKWHxCI4+r9Q610mTJrqnT2GnnzL/4EXE2+j5WWxiDPHDKyUsHsHR55Ve5+quLXXXl3oWezfzD14kvKpn83/V/bgWQ/zwSgmLR3DQuea101/rU+zuMwLzD14MvMzYijMxeKWEzyM46FyVdvqP+BR7rdaxK/MPXtF52cn3nT3PxDwcUfzwSqH5R62rROe6mbfSp9grlcr+zD94Reelaeqe93qeibld8EqJySuF5h8jD53rFrxrfYo9TZOjmX/wYuAlSXKM54HYq/FKicorheYfKw+d6xvjQp9iTxJ7NvMPXgy8JLHneB6IvQCvlKi8Umj+sfLQub4xTvcpdmvt/2P+wYuBZ629wvP0+9/glRKVV0o4PIKDzjUn3lGexX4T8w9eDDxjzC0+B2KTJDkKr5SovFLC4REcdK458d7mWey/Z/7Bi4T3mM+B2Gq1uh9eKVF5pYTDIzjqPHSum8csz2LfJCKTmH9qvC4ROVhEviEi7i/SJ0Tkpexx//fN1tpvpmn6vunT+ycRPx1ekiSTs7nc9IHY7u6u7fBKiccrJSgewVHnoXPdPIyIbPAs9rcz/7x5c0Tk66PlYph8rLfWfsMYsx3x8+a9w1P6tmHJkn068EqJwyslOB7BUeehc31z3OFZ7Kcy/5rmuf/tjMxYqdlfYl7IDnOmrAdN807zWQ+sNXfglRKPV0pwPIKjzkPn+ua4zLPYr2T+NcVzn06uVzhwNfBcN9bnGPIxIu+HnmqYyyKLX+m9UgK+xI7gKPDQub45TvQs9v9k/o2bN1dEVik2/4HHMXcgH+Pm/c5zPTg+svjhlULzj5qHzvXN8TYFb4RtmH8N86aLyCM5NP+B534R6SUfDfO2UVgP9o2s2eCVQvOPmofO9c0xWcEb4T3Mv4Z4zi72hhyb/8DzMxFJyEdDvPd65sOpByZG1mzwSqH5R81D57qlN8Iaz+uRz2P+NcQ7uQXNf+A5gXw0xPuqZz7uj3A9wCslEB7ByYeHznUQz1p7qWezWc38G5M3fSyZn2Lzd4+TCfaRjzF5azzzcVFs8cMrJSwewdHnoXMdxEvT5GO+1yMbY+Yy/0blLW9h83/9sdYuJx+jjvkK+TgitvjhlRIWj+Do89C5DuLV67VdfZtNkiTHMf9GHO6fPdnK5p8xnliwYN4E8jHiOFYhH/Njix9eKWHxCI4+D53rIN6SJXtXs3v9m2421tqfMv9GHO9qQ/N//alUKu8mHyOOFZ75+F12m2ZU8cMrJSwewUHn2grepZ7N5vlZs2b0Mv+GHV9uR/PPNmZfIh/DjrqIbPTMx8WRxg+vlJB5BAedaw68v/ZtNmmaHsT8G3b8vB3NP+PdQD6GHQcq5OPgSOOHVwrNP2pdJTrXrXl9IvKqZ7P5MfNv2PG7NjV/9/yWfAw7rvbMh6uVqZHGD68Umn+cPHSuo/Ju8mw2r4hIP/Nvq/F8m5q/e54jH1sNt9l92TMfv4w4fnil0Pzj5aFzHXGcrCBVO5b5t9XY1KbmP3BTHfnYcnxKIR8nRBw/vFJo/vHy0LmOOOYpnFa/jfk3/ILahuaPP/vw406FfOwQcfzwSgmJR3DQubaQd7fCgbXFzL8tF9Q2Nn/82bccuyrk487I44dXSkg8goPOtYW8UxUOrH2d+ad65oR7K/Q2Yxcq5OMUwSulFF4pQfAIjjoPnevIY/ZgNUCTi+ULQw8Dcuakbc0ff3Znw2ite/rcfRWe+XC1sS1eKeXxSmk7j+Co89C5jj7+VeFn0jOYfzpnTri3wp+XbQC+oLAZuw6vFM6ctJRHcNR56FxHH0co/Ez6hIh0Mv/8z5xwb4Ufr7+/zz0TjTFPKWzGPoBXCmdOWsojOOo8dK4j8GbMmO6eHmPMMwqL5ceZf/5nTri3wp+XJMnxCvP52Uql0olXCmdO2vjHGcFR4KFzHYNnrf2awl+uDy5cOL/O/Gtr8y+9P7tzRDTGPKwwn7+CVwpnTmj+6Fyjj19mEbzJt3klSXIM86+tzb/0/uxJknxKoflvqtVqO3NvBWdOaP7oXMsSv+sVmtdjfX3TpnDmpD3Nv+z+7FOnTplmjHnC9zOMtWYF91Zw5oTmj861TDrXdypZ0v5tyedf25p/2f3Zk8SerXEGo1qtLuXeCs6ctJpHcPLhoXNtnHenQvNyZjjblnj+ta35l9mfvbu7a44xZqNv/Ky1v+TeCs6ctItHcPR56Fwb5x2u1LwuKvH8a1vzL7M/u7X2Uo34VSqV/bm3gjMn7eIRHH0eOtfGee5/f0ihebkb1P60pPNvXbuavzFmbRnXg0qlst9gF8Zm42etuWvJkn06uLeCMyft4hEcfR461/HxjlRqXqtFpF7C+F3Zpubvfr6+smzrgbvHQkTWaMQvTdNDubeCMyft5BEcdK7t5iUi8oBS81pewvgtEJGnWt38jTFP1+u1hSVcD85Rit+axYsX1UoYP86chMwjOOhc28A7WKl5vSIie5UwfjNF5PLBnwNybP7r3F/+ZWz+xpg/EpE/aKhX0jQ9uKTrKWdOaP7oXNG5bjGMiPxSqXndJSI15jM8TV61WnVz6m6lexd+UeJ84JVC84+Th87Va/O0uzvMp/SX6zeYz/CUeRcqNX83x/cscT7wSqH5x8tD59ocL7NUvVjxZ+sPMp/hKfHep3jj4jdLng+8Umj+8fLQuTbP6+3tmemkZUrfrJ+r1Wq7MZ/hefIWi8hGpebvzmhsU/J84JUSEo/goHMNiZckyalaB9asNff39/dNZj7Da5LXLSKrFK9bPpF84JUSFI/goHMNiTd79rZdInK/lsudteZnnZ31CvMZ3jh5TiP9T4rN/96MWfZ84JUSEo/gqPPQufrz9hCRlxUX3+9mSgPmM7xGeG6uXKI4/5w8dW/yMfoGAK+UNvAIjjoPnasO7/PKRjdnMZ/hNcg7R9ll8XTyMfoGAK+UNvEIjjoPnasOz/1vtysb3RzPfIY3Bu9E5eZ/WzaXyccI6yNeKW3kERx1HjpXPd5Omd2v1l33zsDlZOYzvBF4pyg3/xczFQH5GGF9xCslqEvsCI4CD52rLu+kHIxuljOf4Q3hnaHc/N3zKfIx8vqIVwrNH50rOtexhhWR63Mwuvk7x2Y+l57n5tcFOTT/6zI2+RhmfcQrheaPzhWda6Njiog8nIPRzY+TJJnIfC4tb5KIXJ1D838om7PkY5j1Ea8Umj86V3Su4x3uPMC6HFzu1tRqHXsyn0vH201EHsyh+W8QkV3Ix9Y8vFLC4hGcfHjoXHPgpWnqngONMZtysLjdmKbpkczn0vAOH+twaZP16w6Z/gX5GJmHV0pYPIKjz0PnmiMvSZIzlZv/4HxcIyJzmM9x8owx24vItYrzZejzWfIxOg+vlLB4BEefh841R96SJft0WGt/mEPzH3g2ZnKwCvM5Dt722283QUROa+av/nHU7w/Gum2SfOCVEhqP4Ojz0LnmzKtWK3URuSHHxfy17Pvwx0WkTj6KyZsxY/rEJEmOHXyANKf54lQqNfIxNg+vlLB4BAeda1F5zjToVzk1/8HP49lPu/PIRzF4nZ31nZIk+bwx5okcfykaeH4hIhPIR8M8vFJC5hEcdK4F4vWKyL/n2PyHPqtF5Csi8t56vbZo6tQp08hH2+ut1xizIE3TA6y15xtjHsjxjMjQ5xYR6SEf4+LhlULzR+eKzlWNN3Esz4AcpIPw4N0pIpNZ/8bNwyuF5h8nD51r23h9InIPzQtei3h3i8g01r+meHil0Pzj5aFzbRvP3er2S5oXvJx5N4vIVOqtaR5eKTT/eHnoXNvK6xy42pXmBS8H3o9GUoWw/uGVUkgewUHnGguvt7fHPYm19myaFzxl3vkiklBv3jy8UkLiERx0rjHy0jQ9yhjzIs0LnifvBRE5jHpT4+GVEhKP4Kjz0LkGwuvoqO4tImtohvCa5DnZ5+7UmyoPr5SQeARHnYfONSye02n/I80Q3jh5l4lIN/WmzsMrJSQewVHnoXMNk7e/iPyeZghvDJ67+fEvqbfceHilhMQjOOo8dK7h8vqyv+w20QzhDeG5OXHpWPp+6g2vlBh5BEePh841fN5bRWQlzRBe9s9uE5El1EdLeHil0Pyj5qFzLQbPWbceKCKraIal5d2fnfBPqI+WNRu8Umj+UfPQuRaE19U1wT1pmiaHWWtuo7mWhneriBw6nsZPveGVQvMn2OhcI+ZVq9V9rbXfFpH1NNfoeOustd+qVit/Qn20h4dXSlg8gpMPD51r8XnuSuGDROQSEXmM5lpY3qNuQ5em6aGzZs3opT7az8MrJSwewdHnoXONi+fOCiwUkQ+IyLki8hMR+XUmF1tPs247b32Wi7uz3HzF5apWq+28ZMk+HcznsHh4pYTFIzj6PHSu8ODBg4dXSvA8gqPPQ+cKDx48eHilBM8jOOhc4cGDBw+vFHgEB50rPHjw4OGVQvMnOE1tANC5woMHDx5eKTR/dK7oXOHBgweviQ0AXik0f3Su5AMePHh4peCVQvNH50o+4MGDV1AeXikh8QgOOld48ODBaxEPr5SQeAQHnSs8ePDgtYiHV0pIPIKjzkPnCg8ePHjj3ADgldIGHsFR56FzhQcPHrxxbADwSmkTj+Co89C5woMHD16DGwC8UtrIIzjqPHSu8ODBg9fABgCvlKAusSM4Cjx0rvDgwYM3xgYArxSaPzpXdK7w4MHDKwWvFJo/OlfiBw8evIibDV4pNH90ruhc4cGDh1cKXint4hGcfHjoXOHBgwdvGB5eKWHxCI4+D50rPHjw4OGVEjyP4Ojz0LnCgwcPHl4pwfMIjj4PnSs8ePDg4ZUSPI/goHOFBw8ePLxS4BEcdK7w4MGDh1cKzZ/gNLUBQOcKDx48eHil0PzRuaJzhQcPHrwmNgB4pdD80bmSD3jw4OGVglcKzR+dK/mABw9eQXl4pYTEIzjoXOHBgwevRTy8UkLiERx0rvDgwYPXIh5eKSHxCI46D50rPHjw4I1zA4BXSht4BEedh84VHjx48MaxAcArpU08gqPOQ+cKDx48eA1uAPBKaSOP4Kjz0LnCgwcPXgMbALxSgrrEjuAo8NC5woMHD94YGwC8Umj+6FzRucKDBw+vFLxSaP7oXIkfPHjwIm42eKXQ/NG5onOFBw8eXil4pbSLR3Dy4aFzhQcPHrxheHilhMUjOPo8dK7w4MGDh1dK8DyCo897yVPq0k0+4MGDFxtv2rSpUz29Ul4kH7o8gqPPe8pT6rKIfMCDBy82Xq1W293TK+VJ8qHLIzj6vDWeUpfjyQc8ePBi4yVJ8mlPr5QHyEfOPILjLa1Y4Sl1uUdEEvIBDx68WHiLFy+qici9Pl4p1tqfkg+af+i6yvMUpC6fJB/w4MGLiHecr1GatfY88kHzD5aXpql73qcgdXEHCfcjH/DgwYuAt0xEXvY1SkvT9FDyQfMPmtfb2zPLGLPJ87Tr65uAJEmO33XXnevkAx48eEXjLVw4v5795e/d/N2a2tPTPYN80PyD51lrb/Fs/oN+9jL3JklyUkdHx25pmnaRD3jw4IXK6+/vm+xO+2cH/u71Xf8GPTeRjxx4BCeX067HaTR/30sz4MGDBy8S3sfoRznwCI4+L0mSySLyHMUODx48eN689SIyiX6UA4/g5Mb7CsUODx48eN68L9KPcuIRnNx400VkA8UODx48eE3z1olIP/0oJx7ByZX3aYodHjx48JrmHUc/ypFHcHLluX92O8UODx48eOPm3SoiKf0ofx7ByY83V0TWUuzw4MGD1zDvWRHZgf5B84+Bt7+IvEKxw4MHD96YPLdWvpv+QfOPifchEdlEscODBw/eiDy3Rh5B/6D5xxjsw4wxr1Ds8ODBg7cV7w8i8mH6R2t4BKcNvEql8hfGmLUUOzx48OC98c/X8rN/63kEpw28zs7OhcaY21g84MGDB+/10/4c+GsDj+C0idfVNSHNNK7rWDzgwYNXQp67Lv0MEanSP9rDIzjt57lbrs5p9NZAFg948OAVnOfWurNFpI/+0V4ewQmH58wuPiEiNw2oBVg84MGDFwlvU2bp+3GMfQLmEZwgeNNE5KDMUOinIrLKGPOUMeYlFiN48OAFzHtJRNxatcpauyJJ7Llpmh7a09M9g/U+PN7/BwdD7m3qx9Q0AAAAAElFTkSuQmCC;" parent="1" vertex="1">
          <mxGeometry x="220" y="20" width="50" height="50" as="geometry" />
        </mxCell>
        <mxCell id="u-Hj_nb6FEhS3LdYL111-11" value="" style="curved=1;endArrow=none;html=1;rounded=0;fontSize=19;fontColor=#FF0000;edgeStyle=orthogonalEdgeStyle;endFill=0;strokeWidth=4;sketch=0;noJump=0;anchorPointDirection=1;snapToPoint=0;fixDash=0;orthogonal=1;exitX=0.954;exitY=0.023;exitDx=0;exitDy=0;exitPerimeter=0;" parent="1" source="u-Hj_nb6FEhS3LdYL111-3" target="u-Hj_nb6FEhS3LdYL111-9" edge="1">
          <mxGeometry width="50" height="50" relative="1" as="geometry">
            <mxPoint x="180" y="99" as="sourcePoint" />
            <mxPoint x="250" y="60" as="targetPoint" />
            <Array as="points">
              <mxPoint x="197" y="100" />
              <mxPoint x="201" y="100" />
              <mxPoint x="201" y="90" />
              <mxPoint x="250" y="90" />
            </Array>
          </mxGeometry>
        </mxCell>
        <mxCell id="u-Hj_nb6FEhS3LdYL111-12" value="" style="shape=image;verticalLabelPosition=bottom;labelBackgroundColor=#ffffff;verticalAlign=top;aspect=fixed;imageAspect=0;image=data:image/png,iVBORw0KGgoAAAANSUhEUgAAAcQAAAHECAYAAACnX1ofAAAABmJLR0QA/wD/AP+gvaeTAAAgAElEQVR4nO3de9xmY7348c8zM2YMxohxJodyToWIkkKKir3ZlPqVjpuUCkXtdNCBStr4qd1Ju6Rid9ypECrHSggh5DSDcRhjxpzMeZ79xzWT8XgO9+F7rWvd9/15v17fl1695rmu71rrfp7vvda6DiBJkiRJkiRJkiRJkiRJkiRJkiRJkiRJkiRJkiRJkiRJkiRJkiRJkiRJkiRJkiRJkiRJkiRJkiRJkiRJkiRJkiRJkiRJkiRJkiRJkiRJkiRJkiRJkiRJkiRJkiRJkiRJkiRJkiRJkiRJkiRJkiRJkiRJkiRJkiRJkiRJkiRJkiRJkiRJkiRJkiRJkiRJkiRJkiRJkiRJkiRJkiRJkiRJkiRJkiRJkiRJkiRJkiRJkiRJkiRJkiRJkiRJkiRJktSd+kon0IA1gD2BHYHNgecAY4pmJEkazgLgEeAa4HfAU2XTaUxdC+JY4DDg7cDeWAAlqVPNAE4DzgAWFc5lWHUriKOAfwdOAjYtnIskKc4fgUNJd461VKeCuDVwHrBb6UQkSVncB+wLTC6dyGBGlU5guYOBG7AYSlI32xK4inQDVDt1KIjvAn4CTCidiCQpu02BK4EdSicyUOlHpm8EzqcehVmSVJ3pwGuBv5ZOZIWSBXFH4DpgfMEcJEnlzAJeRxpwU1ypgjgOuBnYtlD/kqR6mAscCFxROpFSjypPwGIoSUqLr1wE7F86kRJ3iBOBKcv/K0kSpEn7bwZ+XiqBEneI78NiKEl6prHABcDhpRIYXaDPc4BJBfqVJNXbaNK89IeAm6ruvOo7xBcC21TcpySpc4wm3Ti9r+qOqy6Ie1fcnySp8/QBXwU+UmWnVRfEF1fcnySpM/UBXwa+WFWHVRfErSruT5LU2T4KfKmKjqouiGtX3J8kqfOdCHydzDWr6o13o5ZpOwV4IKgtSVJ7dgA+mLmP9wKrAEcCyzL3VYnJQH9A7FJ14pKkYb2fVKgi/sYPF+eTCmPHsyBKUvc6GlhK/qL4c9JE/o5mQZSk7vYWYDH5i+K5VR1QLhZESep+byKtTZq7KL63qgPKwYIoSb3hIGABeQviNGDNqITdqV6SlMOFpC2d5mbsY13g0KjGLIiSpFyuAN4AzMnYx+ujGrIgSpJyupK0jvUTmdoPWwHNgihJyu1GYD/g8QxtrxfVkAVRklSFm4C9gKnB7Ybt62tBlCRV5U7gFcB9pRMZjAVRklSl+0nvFO8unchAFkRJUtUeIK1oUysWRElSCfNKJzCQBVGSJCyIkiQBFkRJkgAYUzqBmloT2AfYDFifmC8OC4HHgNuAa0l7hlVtFWBPYHtgHWAmaaTXlcD8AvmMW57PC4G16ZJNP/UMi0grlNxC+twvLpDDusCrgC1InzMNbxZpI4argYcK59LV6r7bxZbAD0nFK+cK7dOBTwGrZzqOgSYCp5AK4GD5zAW+SuCKDyOYAJw6TD5Gd8Z04GRgNaqxA2kj2SUZj6mbYxlwGbB7sye+QdsF5Zlj9ZtK1LkgvoV0l1TlB+4e0i9tTjsDDzaYzxPAvhXkM6XBfIzujLtJTylyOob8X2x7JZYCnwX6mroCI7MgEnMCogviu0jfhkp82GaSPhg57ERaZb6ZfBYDr8mUz4tJj2NK/4Ib5WM6sC15fKQGx9eNcWYzF6EBFkRiTkBkQdyZ8t8k7wJWDTwmSI8lW70TmwlsEpzP6qQ74tK/1EZ94jbiP/d7ku5oSh9bt8abGr8UI6pdQXSUKZwGjC2cw9bAB4LbPAF4bos/uxbwmcBcAI4HnhfcpjrbDsDRge31Af+Jf9dyOgMYXzqJblG3O8QdgvKJiCnEPaMfDUxrM59FpMIYlc8jbeZjdGfcS5xX1OB4eiEOb/SCjMA7xJo5sHQCK3kuafpBhN1JQ83bsQqwf0AukB5LbxDUlrrLlsS9S3xdUDsaXtgO9XXT6wVx69IJDLBNUDtRxxWVT+6RtOpsLwhqx89ZNbr2PPd6Qaxq3l2j1g9qZ52gdiYFtTMxqB11p6jPx5pB7Wh4Ua9SaqfXC2LYTstBolYOmhHUzhNB7cwOakfdKerzMSeoHQ1vVukEcun1gtitojbe/EdQO7cHtaPuFPX58HNWja49zxbE7vRH0sTndiwBLg7IBeBG0jqu0kD3A3cEtRX1edXwLiqdQC4WxO60FPhWm238iDRBP8JS4JtBbam7fJ00dD7CVcDfgtrS4B4FflE6iVwsiN3rNGBqiz87G/hkYC4Ap5PmWkor3AV8LbC9fuBY4gqsnu1EyuyMUwkLYveaBRxM8x/epaSFzh8IzmcOcBgwL7hddaYngUOBp4Lb/QPxX+aUfAM4r3QSOVkQu9v1pH0dH2nw388iLVbwm4z57As8nKl9dYYppP0Jb8vU/imkpQuXZGq/1/QDXwbeXzqR3CyI3e/PwI6kNR6HujtbCHyHNOE298CE60gTsc8k7cOo3jEb+BJpRaZbMvd1OrAb6fO8LHNf3exq0pfqE+mB8xg170319gTwYeAk0h3a1qRFAJ4grSV5GdXO4ZoJHLc8n71JBbtrJ/uKmcDNwJXAggr7vYm0nNvGpM/ZVsC4CvvvVIuB+0iDlCLXmtUAdVvc++KgfKLiuKDjkqS6c3FvSZLqyIIoSRIWREmSAAuiJEmABVGSJMCCKEkSYEGUJAmwINZt5YWlpROQpF7V6wWx3T0Do00rnYAk9apeL4h1W5bovtIJSFKv6vWCWKednx8DbiidhCT1ql4viDdSnyL0ber3TlOSekavF8R+4COUL0QPk/YbkyQV0usFEdKWNCV32F4A/BtprzhJUiEWxORU4Fiqn/bwBPB60ia+kqSCLIhPOwvYk7RDdG5LSO8MdwR+X0F/kqQRjCmdQM38GdgLeD5wALAlaWf5iPM0H5gK/J00unVGQJvSQGsBmwPrAKvz9A7xC4A5pLmuDwNPFskun7HAesAmwATSeVjhSWAeaST3ZFwAQ0OwIA7uHuDs0klIIxgPvAzYZ/l/tyN9gWvETNKXs9uBPwHXAndnyDGHNYDdSU90dgK2B7YARjfwswuBfwC3AH8gPaGZnCdNaXiTSSM7241dqk5cqokxwBuAH5OeOkT8Pq2I+0lfBPehfq9TNgI+BFxGKmqRx3078DHS3aWqsx0x1+/xqhOPYkGUWjMBOBF4hNhiMFRMAU4G1q3i4IbQRxp0dhHpvXvuY14K/C+waxUHJwuiBVFqzjjg46QRyVUUwoExDziTau+eRgFvBG4OPI5m4xLghbkPtMdZELEgSo3aD7iLckVh5VgIfIP8d4yHAXcWPtYVsRj4CunuXPGiCmLdNmlomAVRGtmqpOJTuiAM9cfnXaTHmZG2ID0aLX18g8Vk4KXBx6u4gtgPfKLi3ENYEKXhbU3ZR4WNxpXANgHHOxr4KOnRbOljGi4WAccT/0Wgl0UWxI4sihZEaWi7kd6HlP7j32jMAQ5v43gnAZfW4Diaie/hdLUo0QWxH/hUpUfQJguiNLgDqP9d0lBxFrBKk8e7B/BQDXJvJX5Beqyt9mxLnuvTMXeKFkTp2V5N/Ny6quNqYO0Gj/fdXXC8F+KdYrvWJd/16YiiaEGUnmlX0k4npf/AR8StwIYjHO8JpO3WSucaEd/Fd4rt6ANmke/61L4oWhClp21EWl+z9B/2yLiXtAbwQH3AF2uQX3ScNMixqnE/Ju/1qXVRtCBKyWjgCsr/Qc8RDwKbDTje02uQV45YArwSteq15L9GtS2KFkQp+Qzl/5jnjLtIu09AmlZROp+cMZW0u4hacxn5r1Eti6IFUUq7Myyi/B/y3HEjaUHubnlnOFycg1q1AfAA+a9R7YqiBVG9ro/ufVTay7GMtAWXWrMD1bxPr1VRtCCq1x1K+T/eRp74C2pH8aI40jyaLUgj4ca3cHCDiZrMuhvwnKC2Iiwl7UR+P/BU4VxUX31UNypx2koxmrSp7nrAxtRvr8NIc0hfvJ9a/r9XJ/0NW5/8k+l3BfYn7ZSh5t1O2ovz9zz9/jmHzy3/7+cb+ceTgNOIu5vrpZhH2k9tz0ZOtHrOG8j32VsK/Bp4D+mP/1DGkbY1Opo05H1uxpyqiFtIf9hex/B/REeTRoOeTt4Vcq4ZJgc1pvid4gpvJu9EyV6KHwCrjXTC1VN+S57P2kXAi1rMaTXgCOCGTLnliFmk5eK2bfGYx5M2W56RKb+dW8xLTyteFI+nN0aDVRl/IT2qkjYmftf3haStmKIcCNwRnGNkLAL+k8aXiBvJRsB1GfI8Myi/XldVUfzwwI5fT3rkUvoD343x04EnWz3pRGI/VzPJ82h+VeBs6vfl+B7SO7ocxxu9WspjNL/YuQZXRVFcQnr3C8BY4L7MHfZ6HIB63TXE/gK/NnO+B5E2Ay79u9MP/BBYM+OxjiX2+vTjOIJIVRTFe1j+JeaIzB0ZcBXqZWsQOxH/hIry3gF4JDDvVuK07EeZrE9acSYq709XlHevqKIovhXS3l6lC0a3xxLyDiNWve1P3GfpTqrddmhb4OHA/JuJUyo4vpW9JzD3KyvOvRfkLoo/hTR3rnTB6IXYD/Wqk4j7HB1ace4AO1L99IxvVHJkzzSGuEFFc3BrqBxyFsX7ABZkatx4ZhyBetV5xHyGHqXcpPo3Ud1Amz+R3uuVcHyDOTYSm1Sce6/IVRQXjCJN1FV+uVfJUH1tE9TOb0hFqYT/Ab5WQT9PAoeR3rmWcGFgW63Ok9TwVqxoMy243XHdvISTVBdRdwqllwT7D2BK5j5OIK0kU8o9yyPCxkHt6NmyFEULopRf1OIMuYvRSOYC78vY/lXAdzK236jJQe3knCqiDEXRgijlNYq0wHSER4LaacdFpA1do/WT7g77M7TdrKjzPCGoHQ3tdtLCMiEsiFJeY4j7PZsb1E67fpehzemkhbrrIOo8lxoY1Gui7ugtiFJmi4DFQW0Nt4tFVSYAx2Vod13gmAzttmKDoHbq8gVGDbIgSvnNCWon6g91Oz5PvsL8CdKC26VFneeo666KWBCl/J4MamenoHZatQd57+LWAr6asf1GjCXNc4swM6gdVSRyCahbSEuUdZvnkX5RpVbdDWwZ0M5BwBkB7bRiTeB75P8SfTDwduDczP0MZW/iRodGTd/oNOuQ7rKfIg1QWlA2neZEzfKfVHXiFfkZMefnyKoTV22cRcxnaDFl3iP2Af/bQr6txlOU22T3mw3mOFIsI250cSfYBPgKz945aTHwe+CdwOhMfU8i5pr1E9iQBdGCqMEdRdzv2VkV5w5wahv5thqTqX7ps82JW8oybORjB/gw6UvMSOfkNuAFGfq3IFbIgqh27UDc79lCYIsKc/9cYO7Nxj3Ac/Mf4j99PzD38yrMu6Rm76hnA68MzsGCWCELotrVR+y+gn8i/9q4o0h7EVZdBAfG/cBWmY8V4hcvf2cFOZd2Iq2dm+nEfqmzIFbIgqgIPyC2UJxLvu2FNiJNvq+i4DUSs4G3ZTpWgF2AeYH5LqPaO9sSNgPm0/o5+nlgLhbEClkQFeENxBeK84HxwXn+G/B4hlwj4jzSCMZI+5OmR0TmeU1wjnV0Nu2fp6j3iRbEClkQFWEMaT/D6CJxA2kD33btTdrlPTq/6JhJ2nWj3alQq5IWAliSIcdu/13vI+1I0u55+lRQPhbEClkQFeV08hSJpaRHqM3uu7gZaYTgzZnyyhlzgHOA/WhuPvVqpPd7UzLlNZfun7e8MTHn6ldB+YQVxMiJ+eocE0hrR9bNPNJO2N3qTNJKL9Gbco8Cjlged5A2uf07aSDPNFLBmACsR1ogYDvg5aRFJzrVGsC7l8c84DrgetI8uAdIqwPNJ80FXJ/0Tm8f4NWkopjLN4lbmaiuNgxqpw7L9D1L1Dcj7xCHj9J3iC8g/bI+TPlv9yN9w/4ZcGCe01Bc1MRvo34xn7hiUWcvIOZ8XRuUT9gdomuZdr9xwH+RHosdSf1/YVcHDiHd5VxJ9ZOzczuVNIlZ3edr1GPPytymkgpIux4IaCOUBbG7rQ5cDhxNvmWTctqL9Bgsx+oWpUwBTimdREX6SYMvesFU4DOlk6jITODGgHZy7KvZFgtid/sesGfpJNq0AeluMXq4fUmnA3eWTqICJwC70xvLmB1Pb2339MM2f34uaX3c2ol6fu47xOGj6neI/xKUd13i7NjTU9xLiFs3s45x6krHuhVpsFTpnHJFu8WhE61K+qLT6jn7dGAuTruoUKcWxBuD8q5LLKIeG+RG+gDlz2uOOJtnr6KzE/Wd8N9O3Eka8dqL9qC1L3VXk/adjGJBrFAnFsQtgnKuW5QeqRutj3R3Ufq8Rsbnhjne7YAHa5BjVDxJd73fbsWBpEfFjZ6za4if8mVBrFAnFsTDg3KuW3wn8iTVxFjgt5Q/t+3GMuC4Bo53M+CuGuTbbswnfteGTrUDI699O4/0ZSnyznAFJ+ZrWHWfWtGqjUsnkMEi0vqhl5IeQXWiuaQJ8j9u4N9OIQ30uoA0Ub4TLQbeQpoWJLgd2Jf0+T0Y2JX0emM+aWrFpaTFvB8tlWAzor4xeYc4fFR5h3hSUM51i6siT1LNrA78hvLnuNm4i9YeG44GTiYtO1f6GJqJucABLRyv8nFivtRl5gH/SlqTtFNcQBote1sLP7uUVBAPAWZEJpXRo6RF0C8unYjysCBK9bEYeAfwduq9ms3DwGHAm2l/7t0vSdMyvkX6ll5XVwA7kxaKUJeyIEr1833S+5ibSicywFLSAuXbAD8NbHcGcBTwGuCewHYjzCe9gtiX3liWradZEKV6+htpcMIHgVmFc1kC/AB4IWkk6dxM/VxO2tvxfdRjdZuLSPmcShpFqy5nQZTqaylpkvtWwBepfmmwhaTdObYB3kbaUiq3BcDXga1Jj49LLHF3Nelu9fXAvQX6V0FRo68cZTp8OMq0/ejmUaaNWJu0W/yd5D3PfwWOJe2fWNoo0h6G36e5CeDNxlPA+aQF5dVZnIco9aAZwBeWx+6kgS37kh5lDlwqrRlPAH8kPbK8kHo8rlxhGSmvy0nrZ+5NunPbizQhvJ2nXDNIg2UuIr0TLf1oWoVZEDWchcSMdlyF3l3vMZc/Lw9IS2HtAWxLerz5fGACMBFYk3QNl5DusKYC00iPAu8AbgXuJn1DrrsFpCkPK6Y9TAReTFoSbjvSDuwbks7HGNI5WEB65zmHNDr2H6S5kzcBt+C7Qa3EgqjhnEsa/deuQ0iPnpXH46Q7uwtLJ1KxWaTVYlwxRiEcVCNJEhZESZIAC6IkSYAFUZIkwIIoSRJgQZQkCbAgSpIEWBAlSQIsiJIkARZESZIAC6IkSYAFUZIkwIIoSRJgQZQkCbAgSpIEWBAlSQIsiJIkATAmsK3HA9tSPRy5PJT0AQcChwJ7ABsBqxXNSKqvGcBDwKXAD4Gby6YzssiCKHWzXYBvATuXTkTqEGsvjxcCHwbOB44BZpZMajg+MpVGdjBwNRZDqVV9wFuA64DnFc5lSBZEaXi7AD8AxpdOROoCWwG/BtYqnchgLIjS0MYA5+F7QinStsBnSycxGAuiNLS3AduVTkLqQkcBm5ROYiALojS0w0snIHWpscAhpZMYyIIoDe0VpROQutgrSycwkAVRGtzaOJBGymnj0gkMNAqYWzqJHjGnwr669ZpWeVwTKuxL6kVrlk5goFHAI6WT6BEPd2lfVXqodAKSutco4JrSSfSA+cANFfZ3LdBfYX9V8bMqKZtRwE9KJ9EDLgbmVdjfw8AfK+yvCvOB35ROQlL3GkX6Y31t6US62DLgcwX6PalAnzmdATxROglJ3WvFKNP3Uu2gj15yCmVWeb+StBh1N7gV+ELpJCR1txUF8TbgMLp3dGIp3wVOLtj/McCFBfuPcA9wEH42JWW28jzE3wIvB/5aKJduMgv4IPAu0iPTUhaTdmr4NOkdXCfpJ73ffikwuXAuknpA3yD/3yjSkjpvAvYC1qs0o871FOlO+5ekR5XTy6bzLJuQNvs9kLS47qpl0xnUUuBB4BLS3fVfCuayGRZiKac7gO0D2plE0Ab1gxXEgcYRt9r/LcCmAe3svbytulhC572DnUj9ViqaTSqKdRBVEOdTwxU5pDbsQcyI79oVxDEN/JuFyyNC1OPDOdR41+UOMat0Aj2iHz+r6i6d9uW/YXW7Q5AkqQgLoiRJWBAlSQIsiJIkARZESZIAC6IkSYAFUZIkwIIoSRJgQZQkCbAgSpIEWBAlSQIsiJIkARZESZIAC6IkSYAFUZIkwIIoSRJgQZQkCbAgSpIEWBAlSQIsiJIkARZESZIAC6IkSYAFUZIkwIIoSRJgQZQkCYAxbfzsJOBfgFcCmwITGviZDdvob2XnAU8FtRVhMfAYcBvwS+D6sukwFtgb2BfYCNgE6AOmAg8DVwKXA/NLJTiIUcCuwAHA5qTPyhrAo6S8rwd+A8wolWCLVgVuKJ2EFGiN0gnUyXjgVGAe0G8MGlcAO7V6gtuwIfB1YFYDOc4FvgtsViDPla0OfJJUqEfKeTFwEalw5rZZA/kYhtF6/J0YkwJzaspGpG/qpU9kJ8R84P81e4JbNAr4BKnINZvnAuALtPe0oFWH01ghHBjLgAuAtTPmZkE0jLzR0QVxPOnRT+mT2EmxFDiwmZPcgjWAXwTkehWwbuZcV+gDTg7I+R5g+0w5WhANI290dEH8emCnvRRPki5YDuOBPwfmejswMVOuK/vvwJxnAttlyNGCaBh5o3YFsdFRplsB7wlKvtdMBD6eod0+4BzgpYFtbg+cD4wObHOgDwPvDGxvLeBC8j4+ldQDGi2Ib6HMO6Zu8Vbii8w7SNcl2gHAsRnahTTQ6EsZ2n0+8LUM7UrqIY0WxNdkzaL7rUvsqNPxwGcD2xvoJOA5Gdr9EvnuPt8EvCRT25J6QKMFcdOsWfSG5wa2dRRpbmEuzwGOD27zFcB+wW2urA/4TMb2JXW5Rgui72fat05gW4cFtlVVH28Mbm8w+xF3Z7swqB1Jg6vd71ijBbEvaxa9Ieocrg/sHtTWcLYBtg1qq4+0qlFuqwCvC2prGrAkqC1Jzza1dAIDuZZp53kJ1V233YLaWZ/qHrtH5bwM+FtQW5Ke7abSCQxkQew8UevBNmKjmrVTdV+/CGxL0jPV7vfLgth5Nqiwr6ji24k5A/wXaWEFSbEuAf5aOomBLIidp8pdPubVrJ2q+5oBnBjYniSYAxxXOonBWBA7z8Md2Fcn5rzCt4Ezg9uUetVC0qYHd5ZOZDAWxM5zf4V93RfUzlTS1k1ViMp5ZceRVu9ZkKFtqVc8QNqn9VelExmKBbHz3ABMr6Cf+aSNhCM8FdjWSC7J1O5ZwNakJeIeydSH1I3+BpxAmsb1p8K5DKvq9UnfStpZvpN8GtizdBIrWQr8mrSWaU6XE/s+7pfAqwPbG8xU8u5O/yBwDPBBYAvSAJ5VM/YndbLZwBQ672/+iOYRs71G6d3ZW/EzYo79yMCcdiXNk8u5NctrA/OFtNrRjMw559hVRFK9Vb79k+rleuAnGdv/A/Db4DZnAF8MbnNlD+PgF0ltsCB2ro+Riky0eaRHgjmcDdyWod1+0qCXKqekSOoyFsTOdT9py6PI9Tb7gXeTp2hBGqhzIPB4cLtfIO8dsyT9k+8Q6/UOcWVvI83taTe/JcAHMuU40B6kohhxXs/BL3ZSLwt7h9hohxbE+hZEgJcBj7aR22zgoIz5DWZT4MY2cl4CfLTinCXVjwWxQp1QECHtt/hF0mPJRnNaCvyYctdlLOm8TBsmx8HiMmCnAvlKqh8LYoU6pSCusDlp+sFfGHpqxk3AyaSJ5nWwNvB+4FJgEYPnfD9pFOnLCuUoqZ7CCmKjm9bOA1YLSHxz0kTNTvIz4JCAdo4CvhXQTjPWBDYhTSAfTZq4PpV67+AwnpTzBqT8p5JWhum6yb2SQkwiaKBe1SvVqFqzgb8vj04xH7h7eUhSZRydJ0kSFkRJkgALoiRJgAVRkiTAgihJEmBBlCQJsCBKkgRYECVJAiyIkiQBFkRJkgALoiRJgAVRkiTAgihJEmBBlCQJsCBKkgRYECVJAtwgWJIUYyzwKmAXYAPSZt8PApcB/yiYV8MsiJKkdowHjgVOAJ4zxL+5DvgYcEVVSbXCR6aSpFZtDFwNnMrQxRDgpcAfgLOocd3xDlGS1Ir1gWuBzZr4mQ8C/aQ7ytqpbaWWJNXaj2iuGK7wIeCw4FxCWBAlSc06CNinjZ//EjAuKJcwFkRJUrOObvPntwBeG5FIJAuiJKkZ44G9A9p5fUAboSyIkqRmbErM487nB7QRqupRph8FZlfcZ7teUDqBQOOBVwNbA+sCM4F7SBNnO+26NGscsBfwEmBi4Vx6zRzgJtKw+/kF+t+UdEezDTC6QP9VWQrcTTrPUzL2s1ZQO+sEtVO5eaShskbrcWTTZz3OJOAMhr6OC4H/BjYplWBGqwGfAWZQ/jPQ6zEbOA1Yc9grFmdn4BJgWcZjqmtcDuzW/ikc1JZBOV4alM+koHz6G+3Qgth+lCqIewCPNJjjLGr4XL8N25KWjCp97Y1nxhRgp2GuW4QTgcU1ONaSsQT4BNDX5rkcaCzprr/d/M4KyseC2IFRoiDuBjzVZJ5LgAML5BrtecBjlL/uxuDxJLDjkFevPZ+swfHVKU5p73QO6qcBeb06KBcLYgdG1QVxIjC1xVxn09qE27oYA1xP+WtuDB93kR5pR9qb3nxEOlK8rp2TOog928znFuIGdYYVREeZdq+PAhu1+LMTgM8H5lK1t5MGz6jetgaOCWxvFOkxXPQjwm5wBrEDiq4BLmjxZ5cCx5G+uEQYH9ROw7xDbD+qvEMcA0xvM9/FwNoV5hzpr5S/3kZjcT9xBexVNTieOkf0RPg1gJtbyOOEwBwmAn9uIYdBwzvE7rQH7Q9pHgPsH5BL1TYg/4ANxdkc2C6orQOC2ulW0ednLulLyCUN/vtFpBuDLwf1P5yIVIkAAAWTSURBVBH4LWknjRAWxO60VVA7Wwe1U6UdSiegpkVds+2D2ulWOX43niS9n3wzcNsQ/2YB6fHqDsC3g/oNL4bQ+MT8pZGd9qglFfYV9aizEyfOTiidgJoWNS/Raz+8XPM/+0kF7wLSl/FdSVtDLSBNsbmKdDcZJUsxBJY0WhAfww9bux6rsK8ngtqZHtROlWaVTkBNezKonW5fbaldUed5OHcvj1xyFUOAaY0+Mv1Hhs57zZ0V9nVXUDtV5hzldtI3VnWOoR61lWqnW3X6+clZDAHuaLQg/ipTAr3iDuDeCvu7Dni8zTYWkz58nWYacEPpJNSwe4n7AndRUDvdqpPPT+5iCPDrRv/hBFz1o504qtETHejTbeTbT9zL7xKOoPw1NxqLY4e4hq36Sw2OqY5xO507iHIi8Cfynp+ZNDn24r2ZE+rWuJnqdxWBNEdocgv59pPeQW5cfcphRgN/pPy1N4aPW4FVh7iGrXo5aRBg6WOrUywD9m3npBYUOs9wmPhQK8l9p4LEuikeJ+0MXcqLaH4R3kXAfiWSDfZc4CHKfwaMwWM6aTumHI6vwfHVKT7e3ukspqpi+CNaXBxiNGlSZekL3AlxO/XYAPPFpKHPjeQ8nZidsOtiC9KaiaU/C8Yz4y7iJuMP5WjSsP/Sx1oyFtLinU8NVFUMLyTt3tGWlwNX4CK6g8WjpK1noh8FtWNN4HMMvSfgHOD/kzYN7jZjgY/Q+kLnRlxMAz5F/ILeQ9kO+Am9tw3UEuDn5NtNJLdixbDdNQQ3Ii3dszGNTeI+mpjJoeeSCk9dLCDtOXgr6UJGLVobbQxplfrtSdfrSdK39atIx9DNRgG7k5Z1m0SBBYF71ELSk4dbSO91q1ygYoV1gFeStgRbm+5d/HsGcB9wJe2PMi+litGkkGZOHEp6RVRMq4M8BsYuVScuScqqqjvDi4BxFR3TsCyIkqSBeq4YggVRkvRMY0mvbSp/Z1iaBVGStLKv0oPFECyIkqSnbUv+UcANPybt1KV8JEmd71jyruT1K+BfSaOda8c7REnSCjnnB/+KJh+TeocoSSphImkuew4XA4fR5DxDC6IkqYT1MrX7a9Jj0qYXG7EgSpJKyPHusKU7wxUsiJKkbnAxcAhtLENpQZQkdbq2iyGU2bhWkqQos0jvDNteqNs7RElSJ1tM0K4VFkRJkrAgSpIEWBAlSQKqH1TTH9TOwbh8myR1sg1LJzBQX8X93Q5sX3GfkqTuNR1YN6Khqh+Zzqy4P0mSGlJ1Qby74v4kSWpI1QXx5or7kySpIVUXxN9V3J8kSQ2puiDeBtxZcZ+SJI2oxDzEcwv0KUnSsKqedgFpl+TJwFoF+pYkdZeOnXYBaWXy0wr0K0nqPsuiGiq1dNtXgL8X6luS1D0ej2qoVEFcBBwOzC/UvySpO9wb1VDJxb1vBd4GLC2YgySps10c1VCJQTUDvQM4BxhdOhFJUkeZBTwPeCKisTps//Q94BBgdulEJEkd5fMEFUOoxx3iCs8Hvg/sUToRSVLtXUjaCjBslGmdHlPOAL4LPAi8COcpSpIG9z/AEaQBmmHqdIe4slWAQ0kHvA8wtmw6kqQamAJ8AvghcRvO/1NdC+LKVgdeDuwIbEla6cYCKUm9YS7wAPB74FqcmSBJkiRJkiRJkiRJkiRJkiRJkiRJkiRJkiRJkiRJkiRJkiRJkiRJkiRJkiRJkiRJkiRJkiRJkiRJkiRJkiRJkiRJkiRJkiRJkiRJkiRJkiRJkiRJkiRJkiRJkiRJkiRJkiRJkiRJkiRJkiRJkiRJkiRJkiRJkiRJkiRJkiRJkiRJkiRJkiRJkiRJkiRJkiRJkiRJkiRJkiRJkiRJkiRJkiRJkiRJkiRJkiRJkiRJkiRJkiRJkiRJkiRJkiRJktS0/wMNheHjdQH/tgAAAABJRU5ErkJggg==;rotation=-180;" parent="1" vertex="1">
          <mxGeometry x="90" y="280" width="150" height="150" as="geometry" />
        </mxCell>
        <mxCell id="u-Hj_nb6FEhS3LdYL111-13" value="" style="rounded=1;whiteSpace=wrap;html=1;labelBackgroundColor=#000000;fontSize=19;fontColor=#FF0000;strokeColor=#000000;fillColor=none;" parent="1" vertex="1">
          <mxGeometry x="240" y="250" width="30" height="30" as="geometry" />
        </mxCell>
        <mxCell id="u-Hj_nb6FEhS3LdYL111-16" value="" style="group" parent="1" vertex="1" connectable="0">
          <mxGeometry x="130" y="100" width="70" height="120" as="geometry" />
        </mxCell>
        <mxCell id="u-Hj_nb6FEhS3LdYL111-3" value="&lt;font color=&quot;#ff0000&quot; size=&quot;1&quot;&gt;&lt;b style=&quot;font-size: 18px ; background-color: rgb(0 , 0 , 0)&quot;&gt;&amp;nbsp;5.00 V&amp;nbsp;&lt;/b&gt;&lt;/font&gt;" style="rounded=1;whiteSpace=wrap;html=1;fillColor=#f5f5f5;strokeColor=#666666;fontColor=#333333;" parent="u-Hj_nb6FEhS3LdYL111-16" vertex="1">
          <mxGeometry width="70" height="120" as="geometry" />
        </mxCell>
        <mxCell id="u-Hj_nb6FEhS3LdYL111-4" value="" style="ellipse;whiteSpace=wrap;html=1;aspect=fixed;labelBackgroundColor=#000000;fontSize=19;fontColor=#FF0000;strokeColor=#000000;fillColor=#FF0000;" parent="u-Hj_nb6FEhS3LdYL111-16" vertex="1">
          <mxGeometry x="40" y="100" width="10" height="10" as="geometry" />
        </mxCell>
        <mxCell id="u-Hj_nb6FEhS3LdYL111-7" value="" style="ellipse;whiteSpace=wrap;html=1;aspect=fixed;labelBackgroundColor=#000000;fontSize=19;fontColor=#FF0000;fillColor=#000000;" parent="u-Hj_nb6FEhS3LdYL111-16" vertex="1">
          <mxGeometry x="20" y="100" width="10" height="10" as="geometry" />
        </mxCell>
        <mxCell id="u-Hj_nb6FEhS3LdYL111-17" value="" style="endArrow=none;html=1;rounded=1;fontSize=19;fontColor=#FF0000;edgeStyle=orthogonalEdgeStyle;endFill=0;strokeWidth=4;sketch=0;noJump=0;anchorPointDirection=1;snapToPoint=0;fixDash=0;orthogonal=1;" parent="1" target="u-Hj_nb6FEhS3LdYL111-7" edge="1">
          <mxGeometry width="50" height="50" relative="1" as="geometry">
            <mxPoint x="160" y="310" as="sourcePoint" />
            <mxPoint x="170" y="230" as="targetPoint" />
            <Array as="points">
              <mxPoint x="160" y="260" />
              <mxPoint x="155" y="260" />
            </Array>
          </mxGeometry>
        </mxCell>
        <mxCell id="u-Hj_nb6FEhS3LdYL111-18" value="" style="endArrow=none;html=1;rounded=1;fontSize=19;fontColor=#FF0000;edgeStyle=orthogonalEdgeStyle;endFill=0;strokeWidth=4;sketch=0;noJump=1;anchorPointDirection=1;snapToPoint=0;fixDash=0;orthogonal=1;strokeColor=#FF0000;entryX=0.5;entryY=1;entryDx=0;entryDy=0;ignoreEdge=1;exitX=0.5;exitY=0.833;exitDx=0;exitDy=0;exitPerimeter=0;" parent="1" source="u-Hj_nb6FEhS3LdYL111-12" target="u-Hj_nb6FEhS3LdYL111-4" edge="1">
          <mxGeometry width="50" height="50" relative="1" as="geometry">
            <mxPoint x="250" y="280" as="sourcePoint" />
            <mxPoint x="244.9999999999999" y="180" as="targetPoint" />
          </mxGeometry>
        </mxCell>
        <mxCell id="u-Hj_nb6FEhS3LdYL111-19" value="" style="endArrow=none;html=1;rounded=1;fontSize=19;fontColor=#FF0000;edgeStyle=orthogonalEdgeStyle;endFill=0;strokeWidth=4;sketch=0;noJump=1;anchorPointDirection=1;snapToPoint=0;fixDash=0;orthogonal=1;strokeColor=#FF0000;ignoreEdge=1;" parent="1" edge="1">
          <mxGeometry width="50" height="50" relative="1" as="geometry">
            <mxPoint x="165" y="270" as="sourcePoint" />
            <mxPoint x="240" y="270" as="targetPoint" />
          </mxGeometry>
        </mxCell>
        <mxCell id="u-Hj_nb6FEhS3LdYL111-20" value="" style="endArrow=none;html=1;rounded=1;fontSize=19;fontColor=#FF0000;edgeStyle=orthogonalEdgeStyle;endFill=0;strokeWidth=4;sketch=0;noJump=1;anchorPointDirection=1;snapToPoint=0;fixDash=0;orthogonal=1;strokeColor=#FF0000;ignoreEdge=1;exitX=1.002;exitY=0.673;exitDx=0;exitDy=0;exitPerimeter=0;" parent="1" source="u-Hj_nb6FEhS3LdYL111-13" edge="1">
          <mxGeometry width="50" height="50" relative="1" as="geometry">
            <mxPoint x="280" y="270" as="sourcePoint" />
            <mxPoint x="300" y="270" as="targetPoint" />
          </mxGeometry>
        </mxCell>
        <mxCell id="u-Hj_nb6FEhS3LdYL111-21" value="" style="endArrow=none;html=1;rounded=1;fontSize=19;fontColor=#FF0000;edgeStyle=orthogonalEdgeStyle;endFill=0;strokeWidth=4;sketch=0;noJump=0;anchorPointDirection=1;snapToPoint=0;fixDash=0;orthogonal=1;strokeColor=#000000;ignoreEdge=1;" parent="1" edge="1">
          <mxGeometry width="50" height="50" relative="1" as="geometry">
            <mxPoint x="160" y="295" as="sourcePoint" />
            <mxPoint x="300" y="295" as="targetPoint" />
            <Array as="points">
              <mxPoint x="300" y="295" />
              <mxPoint x="300" y="295" />
            </Array>
          </mxGeometry>
        </mxCell>
        <mxCell id="u-Hj_nb6FEhS3LdYL111-22" value="" style="endArrow=none;html=1;rounded=1;fontSize=19;fontColor=#FF0000;edgeStyle=orthogonalEdgeStyle;endFill=0;strokeWidth=1;sketch=0;noJump=0;anchorPointDirection=1;snapToPoint=0;fixDash=0;orthogonal=1;strokeColor=#9933FF;ignoreEdge=1;entryX=0.5;entryY=1;entryDx=0;entryDy=0;" parent="1" target="u-Hj_nb6FEhS3LdYL111-13" edge="1">
          <mxGeometry width="50" height="50" relative="1" as="geometry">
            <mxPoint x="175" y="390" as="sourcePoint" />
            <mxPoint x="280" y="385" as="targetPoint" />
            <Array as="points">
              <mxPoint x="175" y="415" />
              <mxPoint x="255" y="415" />
            </Array>
          </mxGeometry>
        </mxCell>
        <mxCell id="u-Hj_nb6FEhS3LdYL111-23" value="" style="endArrow=none;html=1;rounded=1;fontSize=19;fontColor=#FF0000;edgeStyle=orthogonalEdgeStyle;endFill=0;strokeWidth=1;sketch=0;noJump=0;anchorPointDirection=1;snapToPoint=0;fixDash=0;orthogonal=1;strokeColor=#6666FF;ignoreEdge=1;" parent="1" edge="1">
          <mxGeometry width="50" height="50" relative="1" as="geometry">
            <mxPoint x="170" y="390" as="sourcePoint" />
            <mxPoint x="260" y="280" as="targetPoint" />
            <Array as="points">
              <mxPoint x="170" y="420" />
              <mxPoint x="260" y="420" />
            </Array>
          </mxGeometry>
        </mxCell>
        <mxCell id="u-Hj_nb6FEhS3LdYL111-25" value="" style="endArrow=none;html=1;rounded=1;fontSize=19;fontColor=#FF0000;edgeStyle=orthogonalEdgeStyle;endFill=0;strokeWidth=4;sketch=0;noJump=1;anchorPointDirection=1;snapToPoint=0;fixDash=0;orthogonal=1;strokeColor=#FF8000;ignoreEdge=1;" parent="1" edge="1">
          <mxGeometry width="50" height="50" relative="1" as="geometry">
            <mxPoint x="365" y="205" as="sourcePoint" />
            <mxPoint x="375" y="150" as="targetPoint" />
            <Array as="points">
              <mxPoint x="365" y="185" />
              <mxPoint x="375" y="185" />
            </Array>
          </mxGeometry>
        </mxCell>
        <mxCell id="u-Hj_nb6FEhS3LdYL111-26" value="" style="shape=image;verticalLabelPosition=bottom;labelBackgroundColor=#ffffff;verticalAlign=top;aspect=fixed;imageAspect=0;image=data:image/png,iVBORw0KGgoAAAANSUhEUgAAAgAAAAIACAMAAADDpiTIAAAAA3NCSVQICAjb4U/gAAAACXBIWXMAAA8rAAAPKwEMainsAAAAGXRFWHRTb2Z0d2FyZQB3d3cuaW5rc2NhcGUub3Jnm+48GgAAAfhQTFRF////AAAAAAAAAAAAAAAAAAAAAAAAAAAAAAAAAAAAAAAAAAAAAAAAAAAAAAAAAAAAAAAAAAAAAAAAAAAAAAAAAAAAAAAAAAAAAAAAAAAAAAAAAAAAAAAAAAAAAAAAAAAAAAAAAAAAAAAAAAAAAAAAAAAAAAAAAAAAAAAAAAAAAAAAAAAAAAAAAAAAAAAAAAAAAAAAAAAAAAAAAAAAAAAAAAAAAAAAAAAAAAAAAAAAAAAAAAAAAAAAAAAAAAAAAAAAAAAAAAAAAAAAAAAAAAAAAAAAAAAAAAAAAAAAAAAAAAAAAAAAAAAAAAAAAAAAAAAAAAAAAAAAAAAAAAAAAAAAAAAAAAAAAAAAAAAAAAAAAAAAAAAAAAAAAAAAAAAAAAAAAAAAAAAAAAAAAAAAAAAAAAAAAAAAAAAAAAAAAAAAAAAAAAAAAAAAAAAAAAAAAAAAAAAAAAAAAAAAAAAAAAAAAAAAAAAAAAAAAAAAAAAAAAAAAAAAAAAAAAAAAAAAAAAAAAAAAAAAAAAAAAAAAAAAAAAAAAAAAAAAAAAAAAAAAAAAAAAAAAAAAAAAAAAAAAAAAAAAAAAAAAAAAAAAAAAAAAAAAAAAAAAAAAAAAAAAAAAAAAAAAAAAAAAAAAAAAAAAAAAAAAAAAAAAAAAAAAAAAAAAAAAAAAAAe7yhUAAAAKd0Uk5TAAEDBAUGBwgJCgsODxAREhMUFhgaGxwdHh8gISInKCsvMDEzNDU2Nzk6Oz9AQUJDREVGR0hJSk5PUlZXXmBhYmNlZ2hpa25wcXV3eHp7fH1+gYKDhIaIio2Oj5CSk5WWmJqbnJ2fo6anqKmsra6wtbi5uru8vb7AwcLGyMnKy83Oz9DR09TX2Nna2+Dh4uPk5ebn6Ons7e7v8PHz9PX29/j5+vv8/f6GW7XnAAAIbklEQVR42u3d+VcWdRvA4S+BYSVpi2UGWaJtVmZmWkmSVC5v2vK+lZVUZlm2r5oSppVFWVaGppi9iED/ZjvPMPNQDjCdWa7rx5kzc85z358jzwaGAAAAAAAAAAAAAAAAAAAAAAAAAAAAAAAAAAAAAAAAAAAAAAAAAAAAAMBUNM5dtHLtI888Rw4988jalYvmNma3/baNPSM/k3MjPRvbstj+4sc+M9yi+OyxxdO8/vb3TLVY3mufxvW3vjxqokUz+nLrNK2/ZeuQcRbR0NaWaXnq12eURdU3DU8Hlx83x+I6vnyq+18/bIpFNrx+avvfZoRFt20q+3/Y/Irv4cnv/06v/srwevDOye7/mh9Nrwx+vGZy+7/4K7Mrh68unlQAb5pcWbw5mf3fbG7lcXP6/Tf0Tni3Y32fk0N9xyZcWW9D6gDuqnujobe7Wmf4XkxezWjterv+Bzd3pb1V05f13lbaPteQ827u9npv3n7ZlPI299a5yccLjLcIFnxcZ3n3przJ+8lbvHq+2RbD+a8mt/d+ulvMPpO4w4sNJlsUDS8m1ndmdqo7rE7cYK/nfkV6Nrg3scDVqW7weuKD5UtMtUguSXyN4/U0l888Fb98g5kWy4b4Bk/NTHH1ssS7yc3jzjcu7d7dd+wEOXGsb3f30vG/EdKc+CRnWYoAOuMXPzru9IpvvLmaP9+sGLekR+PnO1ME8FD84ujvGVzwgmHn0wsXRNa0OH72oRQBPBu7tj/yEnDJ1yadV18vibwU7I+dfDZFAG/Ert1TO3XpD+acXz9cWtvUnti5N1IE8GHs2p21U74lUJRP/nfGTn2YIoD4M8gnx86sMeN8WzO2qifjr+RSBPB97NrHxz5qGjDifBsY+8D28diZ76cjgAdNOO8ezDSAXgPOu94sA2g23/xrzjCAKyPH7mv2hnteNN8XWcyVGQZwfe3QJ8aeJ5/UNnN9hgHcVDv0lqHnyVu1zdwkAAEIQAACEIAABCAAAQhAAAIQgAAEIAABCEAAAhCAAAQgAAEIQAACEIAABCAAAQhAAAIQgAAEIAABCEAAAhCAAAQgAAEIQAACEIAABCAAAQhAAAIQgAAEIAABCEAAAhAAAkAACAABIAAEgAAQAAJAAAgAASAABIAAEAACQAAIAAEgAASAABAAAkAACAABIAAEgAAQAAJAAAgAASAABIAAEAACQAAIAAEgAASAAAQgAAEIQAACEIAABCAAAQhAAAIQgAAEIAABCEAAAhCAAAQgAAEIQAACEIAABCAAAQhAAAIQgAAEIAABCEAAAhCAAAQgAAEIQAACEIAABCAAAQhAAAIQgAAEIAABCEAAAhCAAAQgAAEIQAAIAAEgAASAABAAAkAACAABIAAEgAAQAAJAAAgAASAABIAAEAACQAAIAAEgAASAABAAAkAACAABIAAEgAAQAAJAAAgAASAABIAAEAACEIAABCAAAQhAAAIQgAAEIAABCEAAAhCAAAQgAAEIQAACEIAABCAAAQhAAAIQgAAEIAABCEAAAhCAAAQgAAEIQAACEIAABCAAAQhAAAIQgAAEIAABCEAAAhCAAAQgAAEIQAACEIAABCAAASAABIAAEAACQAAIAAEgAASAABAAAkAACAABIAAEgAAQAAJAAAgAAVCYAG6oHfrI0PPko9pmbsgwgNbIsY4mY8+Lpo7IYlozDGBm9ODQIDkxFN3LzAwDiP5LQz6N/WzOJIDNBpx3mzMNYN5JE863k/MyDSB0GXG+dYVsAwjvmHGevROyDuDyAVPOr4HLMw8gLDtiznl1ZFnIPoAw5xWTzqdX5oR/I4AQ7j5q2Plz9O7xW8owgHDequ29342YeV6MfNe7fdV54d8LgAIQgAAEIAABCEAAAhCAAAQgAAEIoL5zlqzfsbcnYih27bc9FM63sSUORU/u3bF+yTl/7b+tx3tpVdTT9sf+O38yi2r6qfO3/befMYmqOtMewrkHzaG6Dp4bOk2hyjrDNkOosm3hgCFU2YHgKWC1nwYGM6g2AQgAASAABIAAqHwA+3eWx2u1h3Uq7bX/r137WolGsv8fA1hXou/EtNQe1qG010a+FNVSopGsE4AABCCAigQwa3oCmCWAgmqs/QLzYMo/azmj9iHZSKMAiqq/9rhWprtyVe3K/iCAoop82eHItWkuvDbyd3AOCKCwuiMPbHhX99NnqXvXcOTCbgEU1q3T8V7ZrQIorKb+qe+/v0kAxXX/1AO4PwigwC8E+6a6/75GARTZdYNT2//gdUEAhdYxtQA6QtkDiP/99ydK9ojDA8OTX//wA2WbxhOxR3gyxH9I7irbQw5LJ/13TY8uLd0wdsWf4oTdsSMDDaV70LOfOj2Z9Z9+anbpRtEQ/1vvu8NL8cfdFspn/qZ9o+m2P7pv0/wSDqIt/jhfClvih54PpTRn4R2rO87S6jsWzinnFJ6Pb3tLnf8DZnmgpJYnlt0VLkscOzzLpMpp1uHEsi8LYV/i4J75ZlVG8/ckVr3v18Obks+ATq41rfJZW+e//Nv06/EF9Z4Ef7DhlhYjK4+WWzZ8UG/PC347uX+CV0KHPqckDk2w4v2/13Gb34+qqtv++PfhXZOopnf//AGxcNQsqmh04V9PEXYYRhXtGHuOeOEXplE9X1xYe5Vw1QnzqJoTV0VfJ94+bCLVMnz7+HcK1hlJtSS++nfPaUOpjtP3JN8tvLHfXKqi/8Z67xfP83ejK+LAvPqfGDT/57jhlN/xjc0Tf31yy6ABldvglr//qusVWw8bUnkd3nrFP3923P7fT02qjA7+b9HZfn/goqtXrNnc/Rwl0b15zYqrL/K9GAAAAAAAAAAAAAAAAAAAAAAAAAAAAAAAAAAAAAAAAAAAAAAAAAAAAICz8QsRq02YPT2JugAAAABJRU5ErkJggg==;" parent="1" vertex="1">
          <mxGeometry x="520" y="205" width="85" height="85" as="geometry" />
        </mxCell>
        <mxCell id="u-Hj_nb6FEhS3LdYL111-27" value="" style="endArrow=none;html=1;rounded=1;fontSize=19;fontColor=#FF0000;edgeStyle=orthogonalEdgeStyle;endFill=0;strokeWidth=4;sketch=0;noJump=1;anchorPointDirection=1;snapToPoint=0;fixDash=0;orthogonal=1;strokeColor=#FF8000;ignoreEdge=1;exitX=0;exitY=0.75;exitDx=0;exitDy=0;entryX=0.5;entryY=1;entryDx=0;entryDy=0;" parent="1" source="u-Hj_nb6FEhS3LdYL111-26" target="u-Hj_nb6FEhS3LdYL111-2" edge="1">
          <mxGeometry width="50" height="50" relative="1" as="geometry">
            <mxPoint x="410" y="210" as="sourcePoint" />
            <mxPoint x="425" y="130" as="targetPoint" />
            <Array as="points">
              <mxPoint x="404" y="269" />
            </Array>
          </mxGeometry>
        </mxCell>
        <mxCell id="u-Hj_nb6FEhS3LdYL111-28" value="" style="endArrow=none;html=1;rounded=1;fontSize=19;fontColor=#FF0000;edgeStyle=orthogonalEdgeStyle;endFill=0;strokeWidth=1;sketch=0;noJump=1;anchorPointDirection=1;snapToPoint=0;fixDash=0;orthogonal=1;strokeColor=#000000;ignoreEdge=1;exitX=1.002;exitY=0.673;exitDx=0;exitDy=0;exitPerimeter=0;" parent="1" edge="1">
          <mxGeometry width="50" height="50" relative="1" as="geometry">
            <mxPoint x="250" y="280" as="sourcePoint" />
            <mxPoint x="250" y="295" as="targetPoint" />
            <Array as="points">
              <mxPoint x="250" y="289.81" />
              <mxPoint x="250" y="289.81" />
            </Array>
          </mxGeometry>
        </mxCell>
        <mxCell id="u-Hj_nb6FEhS3LdYL111-30" value="" style="endArrow=none;html=1;rounded=1;fontSize=19;fontColor=#FF0000;edgeStyle=orthogonalEdgeStyle;endFill=0;strokeWidth=4;sketch=0;noJump=0;anchorPointDirection=1;snapToPoint=0;fixDash=0;orthogonal=1;strokeColor=#000000;ignoreEdge=1;" parent="1" edge="1">
          <mxGeometry width="50" height="50" relative="1" as="geometry">
            <mxPoint x="530" y="275" as="sourcePoint" />
            <mxPoint x="235.00000000000003" y="365" as="targetPoint" />
            <Array as="points">
              <mxPoint x="530" y="365" />
            </Array>
          </mxGeometry>
        </mxCell>
        <mxCell id="u-Hj_nb6FEhS3LdYL111-31" value="&lt;font color=&quot;#000000&quot; style=&quot;font-size: 8px&quot;&gt;Serial via USB&lt;br&gt;&lt;/font&gt;" style="edgeLabel;html=1;align=center;verticalAlign=middle;resizable=0;points=[];fontSize=18;fontColor=#FF0000;spacing=2;labelBackgroundColor=none;" parent="u-Hj_nb6FEhS3LdYL111-30" vertex="1" connectable="0">
          <mxGeometry x="0.1632" y="-1" relative="1" as="geometry">
            <mxPoint x="74" y="-14" as="offset" />
          </mxGeometry>
        </mxCell>
        <mxCell id="u-Hj_nb6FEhS3LdYL111-34" value="&lt;font style=&quot;font-size: 8px&quot; color=&quot;#ff8000&quot;&gt;SSH&amp;nbsp; via Ethernet&lt;/font&gt;" style="edgeLabel;html=1;align=center;verticalAlign=middle;resizable=0;points=[];fontSize=18;fontColor=#FF0000;spacing=2;labelBackgroundColor=none;" parent="1" vertex="1" connectable="0">
          <mxGeometry x="470" y="255" as="geometry" />
        </mxCell>
        <mxCell id="1HhjPqnZkLBGw1Qx6eu0-1" value="" style="shape=image;imageAspect=0;aspect=fixed;verticalLabelPosition=bottom;verticalAlign=top;image=data:image/png,iVBORw0KGgoAAAANSUhEUgAAAMgAAADICAYAAACtWK6eAAAABHNCSVQICAgIfAhkiAAAAAlwSFlzAAALEwAACxMBAJqcGAAACaZJREFUeJzt3XusHFUdwPFveWgptSp9xGJomxgCWiMFKrSFpqRCiImKFKJiGmtUUhJfiWKMhhAbkPgHCUg04iupgIpSChpJSBRotZhWWyktKA2ItFosFozWUkulrX+cbrs7d+/MPu7OmTP7/SQnN7Nnd+d3d/e3c86ZM2dBkiRJkiRJkiRJkiRJkiRJkiRJkiRJkiRJkiRJkiRJkiRJkiRJkiRJkiRJkiRJkiRJkiRJkiRJkiSpwLjYAbQxAVgMnAO8CXhN3HA0xg4Au4BNwCPAvrjhpGMK8HXgP8Bhy1CUPcAtwCko1yXAbuK/YZY45QVCq0FtXEY47MZ+kyxxywHgvVRM7D7IW4GNhH5HsxeA1cAfgf1lB6WBGg/MBq4ApmbqXgbOBbaVHVRVrWXkN8lNhBdR9TYBuJmR7/9DMYOqkgsY+eJcGzUixfBFRn4O5kWNqCK+SeuLsjZuOIroN7R+Fm6LG84xJ0Tc98LM9q0D2Mcs4Lqm7e3ADUNUn4pbgAubtrOfjaG0l9ZvjckD2MfczD42Dll9KqbQ+n/siRvOMTGPICdntl8quP8bgYuBicDvgScGEdSQGE94LacDTwHrCB/MWLLv/cQoUbQRM0G6cRXwHVpfuB8BHwNeiRJRus4H7gXe3HTbeuBywhSQGLLJGfv0w1EpJMh5wJ3A8ZnbP0z45vlMzmO3A1c3bb84ZPVZU4EHGNmcnUc477Sg4PEqUXZobzQ/bHPfRtnPyKaaRvd58s9mz48XWsefh1IdFzuADpyZU/dawkiOOnNGn/VDJ4UEeT6n7iCws6xAaqDotXqujCBSErMz1GnH7H3Az0apuwNYlrOPWVT7PMWg67PeAjxJOPJmbQXmAIdyHj9Ile2ox9JNm/PGNvdfC0wqeFzs8xCx69v5EKHv1vy4Z4HTO3jsIFWyD5LCKBaEb8n7gfcThnofJQxVxvq2S9ndwAbC0Pl0wvmkuwgzaZWRSoJA+HZM9Uxx1fyFMGtaBVJKkF7EPg8Ru159SqGTruFQyc9DCsO8UjQmiJSj7n0Qja2pwMyS9jU3sz10AzSVHPdWrmvIn8s1yBKFTSwphwki5bAPon7sBnYM6LnPHdDzdsUEiSdvnH9cpn60+746duH0ZDWhXzIIleiXptDE6rXz9r2Cx31icCG3dTbhTHdj/4dyykHCh79R/jdKmVPqfzCEPIKU4xzgV4SFJ5SQFI4gqTM5EmaCDJbJccxxhAWrl8cOpBt1TpAVhHZ/o9xX8v5HS44VHOuEd1seLyPwAfg08DSwivBeJKPOfZC/HikN/yxx32czenJ8pcQ4qqKx1u5e4J6YgXQrhQSpxLTnLv0Sk6Odiwi/TZiMOjexYsouzGZyBG+PHUC3UjiC9Op6YEnT9mmxAsHkaFhJ+NXi70aOo2N1PoLMAM5qKv6SajzzCX2Pg1RkCkmn6nwEUXWsBz5AuJYkqdUbTRCVafuRkow6J8hKwjdXwzJaf8VIKlTnBFl3pDTMwwRRl1JIkKJpzymeJ1Ei6jyKpcFbTs2uQc9K4QjSq2W0/lqqzSt1rc4JshD4eOwglLYUE8Q+h0pjH0TduJ3ep+oXlayi+lKkeATp1ArgGzn1g1qNQzVS5wTJXg8idS3FBKnkMvkFNo/R8yQ1j6kOUkyQFJ0VOwD1xk66lMMEkXKk2MTqtM+RPZPerTWEX3/tRVkrd2wraT+KoNO5N73O0SlaerSo3N7FvtS/Ss7Fsokl5UixiaXyXAlcF2nf2aHxKAt1p5ggvb5wP6D1AqqsRcDSniKqrynEG6KuxNB4ignS6wu3jtAvGc0JmCDKGNY+yEzC74O8I3YgqrYUjyD9mglsASYRfqzmXYQhXRVbBXy1pH09VtJ+cqWYIP2eY7iEkBwQjqBLMEE69RJjN68sCSkmSL9v0O8IR45G8/LRPp9PNZZigvRrC6FZtYSQHD+NG46qbBgTBEKTak3kGJSAFBMkO1Tb6a/VLiL//+1n3pZqKsUEya5U0mmCLMXzHDGdDLwcO4huDet5EJXnUuBB4ObYgfTCBNEgPUFIjkuBVyLH0pMUmljf7vFxa4BX+9jvr/t4rILZR/6uBL4cMY4kVXL+v1pcQ3/XyDQed2IP+67E58MmlsrwIPD62EH0wgTRID1+5O9i4IaYgfTKBNEgzSHMWvgFafR3R0gy6AHrd7GHbj0H3DhKXd71K51YQfzVJR8+UiZEjiM5leiEtdHvYg/dlo05sfT73P1eptpvJ70flfh8pHQEmUyYqj6RMCN3S9xwknYScDEwHXiKcLXloagRVVQqCbKUcD6k+TD9E+CjwP4YASVsHnAvcGrTbRuAy4G/R4mowlJIkPnAHYxcMO6DwIvApwa8/6LFHro1k95XCrm6oP564LSc+mnAA8ApmdvPB1YDC6hWc3eoddrGvLvNfRvlAPC6MY4r2wfpdDJkp+Zmnr+bPkiRzeT3Qa5t85zNZUHm/vZBYu24C3lL/p8IzAK2lhNK8op+PuEM4Lc59W8jJM3QSCFBdpI/GvN8WYHUwM6C+r8V1C9kyK6bSeFE4fdz6u4jLCSgztxFaJa28yywtsRYkpBCgtwPfK3N7ZsZssP9GHiGMPKXTZJdwBVtbh96VWpijaN9Z+ww8CXC0eIyQqd8A3APvqG9+DHh9buKMNT7J8KR5V9t7vskvV9u0I1phGHmhn8Q3u+htpfWUYopccM5qs6jWFX1blrjfihuOMfEPII8Q+s6uwupx7fGNMKSQg27CSfmNLqLMtt/jhFEOzET5BFaE+Rz1CNBZgDfatrehAmS5w2MXIijMldzxuyk35nZvpDQ19DwOJ4wSjm56ba9wM/jhDNSzAT5A2HaQ7ObgFsJExJVb6cSEmFJ5vbbgD3lh9Ne7FGsTwIXEA6zDZ8FPkJobm0lJEyz7NBudvpDt/VZZxbUF9lN68jPjoL7T2Vww9VXEiYnVskk4J3Ae4DxmbptlLd6fDIWA/9l9PlBWWNdX1QGPYrVTSmSHcVKqewCTu/gfyxVFU4UPky4LLNoGoTq6zHCRMmnYweSVYUEgTBBbjaJrr6nnu0gNKnPI0x1qZzYfZBm/wa+QJiS3ayofd5vffZM8SJa+yGLGNvXaUZmezfhWox2lme25xY890mZ7VVUa67aYWAfITHWE64MjTaVPVVlt32zvCZdR1WliSVVkgki5ahSH6ShjNmjedbQ36LX3dqeU7epz+fe1+fjJUmSJEmSJEmSJEmSJEmSJEmSJEmSJEmSJEmSJEmSJEmSJEmSJEmSJEmSJEmSJEmSJEmSJEmSJEmSVOT/csj+h/9ExvoAAAAASUVORK5CYII=;rotation=-180;" vertex="1" parent="1">
          <mxGeometry x="485" y="-15" width="200" height="200" as="geometry" />
        </mxCell>
        <mxCell id="1HhjPqnZkLBGw1Qx6eu0-3" value="" style="endArrow=none;html=1;rounded=1;fontSize=19;fontColor=#FF0000;edgeStyle=orthogonalEdgeStyle;endFill=0;strokeWidth=4;sketch=0;noJump=1;anchorPointDirection=1;snapToPoint=0;fixDash=0;orthogonal=1;strokeColor=#FF8000;ignoreEdge=1;" edge="1" parent="1">
          <mxGeometry width="50" height="50" relative="1" as="geometry">
            <mxPoint x="490" y="100" as="sourcePoint" />
            <mxPoint x="425" y="150" as="targetPoint" />
            <Array as="points">
              <mxPoint x="425" y="165" />
            </Array>
          </mxGeometry>
        </mxCell>
        <mxCell id="1HhjPqnZkLBGw1Qx6eu0-4" value="" style="endArrow=none;html=1;rounded=1;fontSize=19;fontColor=#FF0000;edgeStyle=orthogonalEdgeStyle;endFill=0;strokeWidth=4;sketch=0;noJump=1;anchorPointDirection=1;snapToPoint=0;fixDash=0;orthogonal=1;strokeColor=#FF8000;ignoreEdge=1;" edge="1" parent="1">
          <mxGeometry width="50" height="50" relative="1" as="geometry">
            <mxPoint x="490" y="100" as="sourcePoint" />
            <mxPoint x="425" y="150" as="targetPoint" />
            <Array as="points">
              <mxPoint x="425" y="165" />
            </Array>
          </mxGeometry>
        </mxCell>
        <mxCell id="1HhjPqnZkLBGw1Qx6eu0-5" value="" style="endArrow=none;html=1;rounded=1;fontSize=19;fontColor=#FF0000;edgeStyle=orthogonalEdgeStyle;endFill=0;strokeWidth=4;sketch=0;noJump=1;anchorPointDirection=1;snapToPoint=0;fixDash=0;orthogonal=1;strokeColor=#FF8000;ignoreEdge=1;" edge="1" parent="1">
          <mxGeometry width="50" height="50" relative="1" as="geometry">
            <mxPoint x="510" y="65" as="sourcePoint" />
            <mxPoint x="490" y="100" as="targetPoint" />
            <Array as="points">
              <mxPoint x="515" y="65" />
              <mxPoint x="490" y="65" />
            </Array>
          </mxGeometry>
        </mxCell>
        <mxCell id="1HhjPqnZkLBGw1Qx6eu0-6" value="Email Server" style="text;html=1;align=center;verticalAlign=middle;resizable=0;points=[];autosize=1;strokeColor=none;fillColor=none;" vertex="1" parent="1">
          <mxGeometry x="555" y="135" width="80" height="20" as="geometry" />
        </mxCell>
        <mxCell id="1HhjPqnZkLBGw1Qx6eu0-7" value="&lt;font style=&quot;font-size: 8px&quot;&gt;TI INA219&lt;br&gt;Current Sensor&lt;/font&gt;" style="text;html=1;align=center;verticalAlign=middle;resizable=0;points=[];autosize=1;strokeColor=none;fillColor=none;" vertex="1" parent="1">
          <mxGeometry x="222.5" y="215" width="65" height="40" as="geometry" />
        </mxCell>
        <mxCell id="1HhjPqnZkLBGw1Qx6eu0-9" value="I2C" style="text;html=1;align=center;verticalAlign=middle;resizable=0;points=[];autosize=1;strokeColor=none;fillColor=none;fontSize=8;" vertex="1" parent="1">
          <mxGeometry x="232.5" y="395" width="25" height="20" as="geometry" />
        </mxCell>
        <mxCell id="1HhjPqnZkLBGw1Qx6eu0-10" value="Test Pi" style="text;html=1;align=center;verticalAlign=middle;resizable=0;points=[];autosize=1;strokeColor=none;fillColor=none;fontSize=12;" vertex="1" parent="1">
          <mxGeometry x="320" y="180" width="35" height="20" as="geometry" />
        </mxCell>
      </root>
    </mxGraphModel>
  </diagram>
</mxfile>
